ISO-10303-21;
HEADER;
FILE_DESCRIPTION (( 'STEP AP214' ),
    '1' );
FILE_NAME ('assembly0p2.STEP',
    '2026-08-10T13:51:54',
    ( '' ),
    ( '' ),
    'SwSTEP 2.0',
    'SolidWorks 2024',
    '' );
FILE_SCHEMA (( 'AUTOMOTIVE_DESIGN' ));
ENDSEC;

DATA;
#1 = ORIENTED_EDGE ( 'NONE', *, *, #984, .F. ) ;
#2 = CARTESIAN_POINT ( 'NONE',  ( 5.948021841227009610, 2.453836214647608926, -9.000000000000000000 ) ) ;
#3 = VERTEX_POINT ( 'NONE', #971 ) ;
#4 = DIRECTION ( 'NONE',  ( 0.000000000000000000, -1.000000000000000000, 0.000000000000000000 ) ) ;
#5 = EDGE_CURVE ( 'NONE', #414, #99, #176, .T. ) ;
#6 = ORIENTED_EDGE ( 'NONE', *, *, #150, .T. ) ;
#7 = AXIS2_PLACEMENT_3D ( 'NONE', #460, #876, #796 ) ;
#8 = DIRECTION ( 'NONE',  ( 0.000000000000000000, 0.000000000000000000, 1.000000000000000000 ) ) ;
#9 = AXIS2_PLACEMENT_3D ( 'NONE', #964, #882, #682 ) ;
#10 = ORIENTED_EDGE ( 'NONE', *, *, #793, .T. ) ;
#11 = SHAPE_DEFINITION_REPRESENTATION ( #439, #225 ) ;
#12 = ORIENTED_EDGE ( 'NONE', *, *, #998, .F. ) ;
#13 = EDGE_CURVE ( 'NONE', #930, #363, #705, .T. ) ;
#14 = CARTESIAN_POINT ( 'NONE',  ( -6.130393651202103555, 2.670691882948890594, -9.000000000000001776 ) ) ;
#15 = ADVANCED_BREP_SHAPE_REPRESENTATION ( '', ( #484, #547 ), #972 ) ;
#16 = PRODUCT_DEFINITION ( 'UNKNOWN', '', #339, #1091 ) ;
#17 = EDGE_LOOP ( 'NONE', ( #865, #207, #604, #781, #429, #676 ) ) ;
#18 = PRODUCT_DEFINITION_SHAPE ( 'NONE', 'NONE',  #290 ) ;
#19 = APPLICATION_PROTOCOL_DEFINITION ( 'draft international standard', 'automotive_design', 1998, #969 ) ;
#20 = ORIENTED_EDGE ( 'NONE', *, *, #1009, .F. ) ;
#21 = CARTESIAN_POINT ( 'NONE',  ( -6.002174014518434575, 2.490068406504336807, -9.000000000000003553 ) ) ;
#22 = CARTESIAN_POINT ( 'NONE',  ( 0.000000000000000000, 0.000000000000000000, -6.400000000000000355 ) ) ;
#23 = APPLICATION_PROTOCOL_DEFINITION ( 'draft international standard', 'automotive_design', 1998, #114 ) ;
#24 = VERTEX_POINT ( 'NONE', #277 ) ;
#25 = CARTESIAN_POINT ( 'NONE',  ( 0.000000000000000000, 2.399999999999999911, 0.000000000000000000 ) ) ;
#26 = AXIS2_PLACEMENT_3D ( 'NONE', #1070, #740, #1055 ) ;
#27 = SURFACE_STYLE_FILL_AREA ( #687 ) ;
#28 = CARTESIAN_POINT ( 'NONE',  ( 1.273632671113246093E-15, 2.772024682098680248, -10.40000000000000036 ) ) ;
#29 = AXIS2_PLACEMENT_3D ( 'NONE', #811, #130, #42 ) ;
#30 = EDGE_CURVE ( 'NONE', #1092, #967, #174, .T. ) ;
#31 = AXIS2_PLACEMENT_3D ( 'NONE', #77, #428, #1023 ) ;
#32 = DIRECTION ( 'NONE',  ( 0.000000000000000000, -1.000000000000000000, 0.000000000000000000 ) ) ;
#33 = CIRCLE ( 'NONE', #195, 11.40000000000000036 ) ;
#34 = ORIENTED_EDGE ( 'NONE', *, *, #633, .T. ) ;
#35 = FACE_OUTER_BOUND ( 'NONE', #532, .T. ) ;
#36 = CARTESIAN_POINT ( 'NONE',  ( 0.000000000000000000, 3.600000000000000089, 15.00000000000000000 ) ) ;
#37 = CARTESIAN_POINT ( 'NONE',  ( 0.000000000000000000, 4.100000000000000533, 15.00000000000000000 ) ) ;
#38 = ADVANCED_FACE ( 'NONE', ( #612, #120 ), #1037, .T. ) ;
#39 = FACE_OUTER_BOUND ( 'NONE', #510, .T. ) ;
#40 = ORIENTED_EDGE ( 'NONE', *, *, #680, .F. ) ;
#41 = CARTESIAN_POINT ( 'NONE',  ( 6.123233995736761105E-17, -0.5000000000000000000, 0.000000000000000000 ) ) ;
#42 = DIRECTION ( 'NONE',  ( 0.000000000000000000, 0.000000000000000000, -1.000000000000000000 ) ) ;
#43 = FACE_OUTER_BOUND ( 'NONE', #157, .T. ) ;
#44 = ORIENTED_EDGE ( 'NONE', *, *, #442, .T. ) ;
#45 = EDGE_CURVE ( 'NONE', #1035, #189, #948, .T. ) ;
#46 = DIRECTION ( 'NONE',  ( 0.000000000000000000, 0.000000000000000000, 1.000000000000000000 ) ) ;
#47 = PLANE ( 'NONE',  #65 ) ;
#48 = DIRECTION ( 'NONE',  ( -1.084202172485503818E-16, 1.000000000000000000, 0.000000000000000000 ) ) ;
#49 = VECTOR ( 'NONE', #1061, 1000.000000000000000 ) ;
#50 = COLOUR_RGB ( '',0.7921568627450980005, 0.8196078431372548767, 0.9333333333333333481 ) ;
#51 = CARTESIAN_POINT ( 'NONE',  ( 0.000000000000000000, 2.772024682098680248, 0.000000000000000000 ) ) ;
#52 = DIRECTION ( 'NONE',  ( 0.000000000000000000, 1.000000000000000000, 0.000000000000000000 ) ) ;
#53 = FACE_OUTER_BOUND ( 'NONE', #256, .T. ) ;
#54 = PRODUCT_RELATED_PRODUCT_CATEGORY ( 'part', '', ( #344 ) ) ;
#55 = LINE ( 'NONE', #475, #787 ) ;
#56 = DIRECTION ( 'NONE',  ( -1.000000000000000000, -2.028422091276168244E-16, 0.000000000000000000 ) ) ;
#57 = APPLICATION_CONTEXT ( 'automotive_design' ) ;
#58 = DIRECTION ( 'NONE',  ( -1.000000000000000000, 0.000000000000000000, 0.000000000000000000 ) ) ;
#59 = DIRECTION ( 'NONE',  ( 0.000000000000000000, -1.000000000000000000, 0.000000000000000000 ) ) ;
#60 = DIRECTION ( 'NONE',  ( 0.000000000000000000, 0.000000000000000000, -1.000000000000000000 ) ) ;
#61 = CARTESIAN_POINT ( 'NONE',  ( 6.123233995736761105E-17, -0.5000000000000000000, 0.000000000000000000 ) ) ;
#62 = VERTEX_POINT ( 'NONE', #720 ) ;
#63 = AXIS2_PLACEMENT_3D ( 'NONE', #538, #451, #285 ) ;
#64 = DIRECTION ( 'NONE',  ( 0.000000000000000000, 1.000000000000000000, 0.000000000000000000 ) ) ;
#65 = AXIS2_PLACEMENT_3D ( 'NONE', #317, #140, #491 ) ;
#66 = DIRECTION ( 'NONE',  ( 1.000000000000000000, 0.000000000000000000, 0.000000000000000000 ) ) ;
#67 = CARTESIAN_POINT ( 'NONE',  ( 6.139927865616800595, 2.690300525322111724, -9.000000000000005329 ) ) ;
#68 = AXIS2_PLACEMENT_3D ( 'NONE', #37, #288, #624 ) ;
#69 = VERTEX_POINT ( 'NONE', #1046 ) ;
#70 = CYLINDRICAL_SURFACE ( 'NONE', #678, 6.400000000000000355 ) ;
#71 = EDGE_CURVE ( 'NONE', #598, #171, #294, .T. ) ;
#72 = CARTESIAN_POINT ( 'NONE',  ( 5.849794352149619847, 2.399999999999999911, -9.000000000000000000 ) ) ;
#73 = ORIENTED_EDGE ( 'NONE', *, *, #276, .F. ) ;
#74 = CARTESIAN_POINT ( 'NONE',  ( 2.449293598294704935E-16, 0.000000000000000000, 2.000000000000000000 ) ) ;
#75 = CARTESIAN_POINT ( 'NONE',  ( 0.000000000000000000, 0.000000000000000000, 0.000000000000000000 ) ) ;
#76 = EDGE_CURVE ( 'NONE', #940, #616, #1042, .T. ) ;
#77 = CARTESIAN_POINT ( 'NONE',  ( -5.896459854439671094E-48, 4.814824860968089633E-32, 0.000000000000000000 ) ) ;
#78 = EDGE_LOOP ( 'NONE', ( #923, #166, #1043, #346, #471 ) ) ;
#79 = DIRECTION ( 'NONE',  ( 0.000000000000000000, -1.000000000000000000, 0.000000000000000000 ) ) ;
#80 = CIRCLE ( 'NONE', #118, 10.90000000000000036 ) ;
#81 = CARTESIAN_POINT ( 'NONE',  ( 0.000000000000000000, 1.932435664203765002, 0.000000000000000000 ) ) ;
#82 = CIRCLE ( 'NONE', #31, 2.000000000000000000 ) ;
#83 = COLOUR_RGB ( '',0.7921568627450980005, 0.8196078431372548767, 0.9333333333333333481 ) ;
#84 = ORIENTED_EDGE ( 'NONE', *, *, #407, .T. ) ;
#85 = LINE ( 'NONE', #167, #752 ) ;
#86 = DIRECTION ( 'NONE',  ( 0.000000000000000000, 0.000000000000000000, 1.000000000000000000 ) ) ;
#87 = VERTEX_POINT ( 'NONE', #402 ) ;
#88 = CARTESIAN_POINT ( 'NONE',  ( 0.000000000000000000, 2.399999999999999911, 0.000000000000000000 ) ) ;
#89 = ORIENTED_EDGE ( 'NONE', *, *, #235, .F. ) ;
#90 = EDGE_CURVE ( 'NONE', #858, #408, #325, .T. ) ;
#91 = DIRECTION ( 'NONE',  ( 0.000000000000000000, 0.000000000000000000, -1.000000000000000000 ) ) ;
#92 = DIRECTION ( 'NONE',  ( 1.000000000000000000, 0.000000000000000000, 0.000000000000000000 ) ) ;
#93 = APPLICATION_CONTEXT ( 'automotive_design' ) ;
#94 = ORIENTED_EDGE ( 'NONE', *, *, #175, .T. ) ;
#95 = DIRECTION ( 'NONE',  ( 0.000000000000000000, -1.000000000000000000, 0.000000000000000000 ) ) ;
#96 = ORIENTED_EDGE ( 'NONE', *, *, #834, .F. ) ;
#97 = ADVANCED_FACE ( 'NONE', ( #818 ), #1078, .T. ) ;
#98 = PRODUCT_CONTEXT ( 'NONE', #114, 'mechanical' ) ;
#99 = VERTEX_POINT ( 'NONE', #812 ) ;
#100 = PRODUCT_DEFINITION ( 'UNKNOWN', '', #639, #156 ) ;
#101 = CARTESIAN_POINT ( 'NONE',  ( -6.145603655010891231, 2.721509930024989643, -9.000000000000003553 ) ) ;
#102 = MANIFOLD_SOLID_BREP ( 'NONE', #717 ) ;
#103 = CIRCLE ( 'NONE', #193, 7.036069511671510845 ) ;
#104 = ORIENTED_EDGE ( 'NONE', *, *, #870, .F. ) ;
#105 = AXIS2_PLACEMENT_3D ( 'NONE', #406, #329, #742 ) ;
#106 = EDGE_CURVE ( 'NONE', #954, #750, #269, .T. ) ;
#107 = ORIENTED_EDGE ( 'NONE', *, *, #1020, .F. ) ;
#108 = LINE ( 'NONE', #369, #500 ) ;
#109 = VERTEX_POINT ( 'NONE', #749 ) ;
#110 =( NAMED_UNIT ( * ) PLANE_ANGLE_UNIT ( ) SI_UNIT ( $, .RADIAN. ) );
#111 = ORIENTED_EDGE ( 'NONE', *, *, #897, .F. ) ;
#112 = DIRECTION ( 'NONE',  ( 0.000000000000000000, 0.000000000000000000, -1.000000000000000000 ) ) ;
#113 = ORIENTED_EDGE ( 'NONE', *, *, #594, .F. ) ;
#114 = APPLICATION_CONTEXT ( 'automotive_design' ) ;
#115 = ORIENTED_EDGE ( 'NONE', *, *, #831, .F. ) ;
#116 = PLANE ( 'NONE',  #63 ) ;
#117 = PRODUCT_DEFINITION_SHAPE ( 'NONE', 'NONE',  #100 ) ;
#118 = AXIS2_PLACEMENT_3D ( 'NONE', #358, #866, #610 ) ;
#119 = DIRECTION ( 'NONE',  ( 0.000000000000000000, 0.000000000000000000, 1.000000000000000000 ) ) ;
#120 = FACE_OUTER_BOUND ( 'NONE', #184, .T. ) ;
#121 = AXIS2_PLACEMENT_3D ( 'NONE', #347, #4, #299 ) ;
#122 = PRESENTATION_LAYER_ASSIGNMENT (  '', '', ( #522 ) ) ;
#123 = VECTOR ( 'NONE', #313, 1000.000000000000000 ) ;
#124 = ORIENTED_EDGE ( 'NONE', *, *, #551, .F. ) ;
#125 = FACE_OUTER_BOUND ( 'NONE', #528, .T. ) ;
#126 = DIRECTION ( 'NONE',  ( 0.000000000000000000, 0.000000000000000000, -1.000000000000000000 ) ) ;
#127 = CARTESIAN_POINT ( 'NONE',  ( 0.000000000000000000, 2.772024682098680248, 0.000000000000000000 ) ) ;
#128 = EDGE_CURVE ( 'NONE', #330, #87, #770, .T. ) ;
#129 = DIRECTION ( 'NONE',  ( -1.000000000000000000, -1.185846126156020475E-16, 0.000000000000000000 ) ) ;
#130 = DIRECTION ( 'NONE',  ( 0.000000000000000000, -1.000000000000000000, 0.000000000000000000 ) ) ;
#131 = CARTESIAN_POINT ( 'NONE',  ( 0.000000000000000000, 2.772024682098680248, -10.40000000000000036 ) ) ;
#132 = ADVANCED_FACE ( 'NONE', ( #53 ), #977, .F. ) ;
#133 = SPHERICAL_SURFACE ( 'NONE', #617, 68.41666666666669983 ) ;
#134 = DIRECTION ( 'NONE',  ( 0.000000000000000000, -1.000000000000000000, 0.000000000000000000 ) ) ;
#135 = SURFACE_STYLE_USAGE ( .BOTH. , #907 ) ;
#136 = AXIS2_PLACEMENT_3D ( 'NONE', #1094, #241, #1102 ) ;
#137 = DIRECTION ( 'NONE',  ( 1.000000000000000000, 0.000000000000000000, 0.000000000000000000 ) ) ;
#138 = AXIS2_PLACEMENT_3D ( 'NONE', #1096, #258, #928 ) ;
#139 = CARTESIAN_POINT ( 'NONE',  ( 8.616700006046799855E-16, 0.000000000000000000, -7.036069511671510845 ) ) ;
#140 = DIRECTION ( 'NONE',  ( 0.000000000000000000, -1.000000000000000000, 0.000000000000000000 ) ) ;
#141 = CARTESIAN_POINT ( 'NONE',  ( 0.000000000000000000, 2.772024682098680248, 0.000000000000000000 ) ) ;
#142 = DIRECTION ( 'NONE',  ( -1.000000000000000000, 0.000000000000000000, 1.224646799147352221E-16 ) ) ;
#143 = DIRECTION ( 'NONE',  ( 0.000000000000000000, 1.000000000000000000, 0.000000000000000000 ) ) ;
#144 = DIRECTION ( 'NONE',  ( 0.000000000000000000, 0.000000000000000000, -1.000000000000000000 ) ) ;
#145 = UNCERTAINTY_MEASURE_WITH_UNIT (LENGTH_MEASURE( 1.000000000000000082E-05 ), #724, 'distance_accuracy_value', 'NONE');
#146 = DIRECTION ( 'NONE',  ( 0.000000000000000000, 0.000000000000000000, 1.000000000000000000 ) ) ;
#147 = VERTEX_POINT ( 'NONE', #735 ) ;
#148 = CARTESIAN_POINT ( 'NONE',  ( 0.000000000000000000, 2.227975317901319752, 0.000000000000000000 ) ) ;
#149 = CARTESIAN_POINT ( 'NONE',  ( 0.000000000000000000, 1.932435664203765002, 0.000000000000000000 ) ) ;
#150 = EDGE_CURVE ( 'NONE', #593, #846, #1062, .T. ) ;
#151 = EDGE_LOOP ( 'NONE', ( #597, #194, #721, #124, #868, #1081 ) ) ;
#152 = AXIS2_PLACEMENT_3D ( 'NONE', #316, #909, #399 ) ;
#153 = DIRECTION ( 'NONE',  ( 0.000000000000000000, -1.000000000000000000, 0.000000000000000000 ) ) ;
#154 = CARTESIAN_POINT ( 'NONE',  ( 0.000000000000000000, 0.000000000000000000, 0.000000000000000000 ) ) ;
#155 = CIRCLE ( 'NONE', #994, 7.000000000000000000 ) ;
#156 = PRODUCT_DEFINITION_CONTEXT ( 'detailed design', #969, 'design' ) ;
#157 = EDGE_LOOP ( 'NONE', ( #584, #497, #945, #526 ) ) ;
#158 = ADVANCED_FACE ( 'NONE', ( #1068 ), #889, .T. ) ;
#159 = CARTESIAN_POINT ( 'NONE',  ( 0.000000000000000000, 0.000000000000000000, 0.000000000000000000 ) ) ;
#160 = CARTESIAN_POINT ( 'NONE',  ( 6.400000000000000355, -0.6999999999999919620, -8.205133554287269520E-16 ) ) ;
#161 = ORIENTED_EDGE ( 'NONE', *, *, #474, .T. ) ;
#162 = DIRECTION ( 'NONE',  ( -1.000000000000000000, -1.224646799147351975E-16, 0.000000000000000000 ) ) ;
#163 =( LENGTH_UNIT ( ) NAMED_UNIT ( * ) SI_UNIT ( .MILLI., .METRE. ) );
#164 = ADVANCED_FACE ( 'NONE', ( #226, #567 ), #1080, .T. ) ;
#165 = CARTESIAN_POINT ( 'NONE',  ( 0.000000000000000000, 4.100000000000000533, 0.000000000000000000 ) ) ;
#166 = ORIENTED_EDGE ( 'NONE', *, *, #1069, .T. ) ;
#167 = CARTESIAN_POINT ( 'NONE',  ( -6.400000000000000355, -7.837739514543080642E-16, 0.000000000000000000 ) ) ;
#168 = CIRCLE ( 'NONE', #482, 6.400000000000000355 ) ;
#169 = PRODUCT_DEFINITION_FORMATION_WITH_SPECIFIED_SOURCE ( 'ANY', '', #683, .NOT_KNOWN. ) ;
#170 = CIRCLE ( 'NONE', #821, 7.036069511671510845 ) ;
#171 = VERTEX_POINT ( 'NONE', #655 ) ;
#172 = CARTESIAN_POINT ( 'NONE',  ( 6.148983655857279906, 2.772024682098680248, -9.000000000000000000 ) ) ;
#173 = CIRCLE ( 'NONE', #318, 6.400000000000000355 ) ;
#174 = CIRCLE ( 'NONE', #804, 1.000000000000000888 ) ;
#175 = EDGE_CURVE ( 'NONE', #459, #109, #216, .T. ) ;
#176 = CIRCLE ( 'NONE', #378, 11.40000000000000036 ) ;
#177 = VECTOR ( 'NONE', #79, 1000.000000000000000 ) ;
#178 = EDGE_LOOP ( 'NONE', ( #302, #368 ) ) ;
#179 = CARTESIAN_POINT ( 'NONE',  ( 1.084282716885195972E-15, 0.000000000000000000, -7.036069511671510845 ) ) ;
#180 = PRODUCT_CONTEXT ( 'NONE', #914, 'mechanical' ) ;
#181 = ORIENTED_EDGE ( 'NONE', *, *, #1074, .T. ) ;
#182 = DIRECTION ( 'NONE',  ( 0.000000000000000000, 0.000000000000000000, -1.000000000000000000 ) ) ;
#183 = EDGE_CURVE ( 'NONE', #846, #967, #33, .T. ) ;
#184 = EDGE_LOOP ( 'NONE', ( #917, #625, #1011 ) ) ;
#185 = CONTEXT_DEPENDENT_SHAPE_REPRESENTATION ( #467, #723 ) ;
#186 = EDGE_LOOP ( 'NONE', ( #250, #575, #84, #1086, #73, #366 ) ) ;
#187 = CARTESIAN_POINT ( 'NONE',  ( -6.291378615214650694, 4.100000000000000533, -13.61684820801127849 ) ) ;
#188 = ADVANCED_FACE ( 'NONE', ( #39 ), #201, .F. ) ;
#189 = VERTEX_POINT ( 'NONE', #726 ) ;
#190 = ORIENTED_EDGE ( 'NONE', *, *, #680, .T. ) ;
#191 = VECTOR ( 'NONE', #968, 1000.000000000000000 ) ;
#192 = CARTESIAN_POINT ( 'NONE',  ( -6.099269112703438189, 2.605566990259072124, -9.000000000000001776 ) ) ;
#193 = AXIS2_PLACEMENT_3D ( 'NONE', #960, #877, #112 ) ;
#194 = ORIENTED_EDGE ( 'NONE', *, *, #311, .T. ) ;
#195 = AXIS2_PLACEMENT_3D ( 'NONE', #127, #495, #663 ) ;
#196 = ADVANCED_FACE ( 'NONE', ( #1052 ), #1047, .T. ) ;
#197 = ORIENTED_EDGE ( 'NONE', *, *, #106, .T. ) ;
#198 = DIRECTION ( 'NONE',  ( 1.000000000000000000, 0.000000000000000000, 0.000000000000000000 ) ) ;
#199 = DIRECTION ( 'NONE',  ( -1.224646799147351975E-16, 1.000000000000000000, 0.000000000000000000 ) ) ;
#200 = CARTESIAN_POINT ( 'NONE',  ( -6.324555320336760822, 4.100000000000000533, -9.000000000000000000 ) ) ;
#201 = CYLINDRICAL_SURFACE ( 'NONE', #938, 6.400000000000000355 ) ;
#202 = APPLICATION_PROTOCOL_DEFINITION ( 'draft international standard', 'automotive_design', 1998, #57 ) ;
#203 = ORIENTED_EDGE ( 'NONE', *, *, #175, .F. ) ;
#204 = ADVANCED_FACE ( 'NONE', ( #898 ), #487, .F. ) ;
#205 = DIRECTION ( 'NONE',  ( 0.000000000000000000, 0.000000000000000000, -1.000000000000000000 ) ) ;
#206 = CARTESIAN_POINT ( 'NONE',  ( 0.000000000000000000, -0.6188667858132650412, 0.000000000000000000 ) ) ;
#207 = ORIENTED_EDGE ( 'NONE', *, *, #1069, .F. ) ;
#208 = EDGE_LOOP ( 'NONE', ( #854, #1051 ) ) ;
#209 = CARTESIAN_POINT ( 'NONE',  ( 0.000000000000000000, -0.6999999999999919620, 0.000000000000000000 ) ) ;
#210 = AXIS2_PLACEMENT_3D ( 'NONE', #489, #648, #309 ) ;
#211 = FACE_OUTER_BOUND ( 'NONE', #261, .T. ) ;
#212 = CARTESIAN_POINT ( 'NONE',  ( 6.291378615214670234, 4.100000000000000533, -13.61684820801127849 ) ) ;
#213 = EDGE_CURVE ( 'NONE', #147, #858, #630, .T. ) ;
#214 = ORIENTED_EDGE ( 'NONE', *, *, #834, .T. ) ;
#215 = AXIS2_PLACEMENT_3D ( 'NONE', #679, #932, #521 ) ;
#216 = CIRCLE ( 'NONE', #417, 15.00000000000000000 ) ;
#217 = AXIS2_PLACEMENT_3D ( 'NONE', #653, #999, #1077 ) ;
#218 = ORIENTED_EDGE ( 'NONE', *, *, #5, .T. ) ;
#219 = DIRECTION ( 'NONE',  ( 0.000000000000000000, 0.000000000000000000, -1.000000000000000000 ) ) ;
#220 = CARTESIAN_POINT ( 'NONE',  ( 4.336808689942014778E-16, 67.41666666666669983, 0.000000000000000000 ) ) ;
#221 = CARTESIAN_POINT ( 'NONE',  ( 6.123233995736770966E-17, -0.5000000000000000000, 0.000000000000000000 ) ) ;
#222 = EDGE_CURVE ( 'NONE', #502, #1003, #504, .T. ) ;
#223 = LINE ( 'NONE', #139, #692 ) ;
#224 = CARTESIAN_POINT ( 'NONE',  ( 0.000000000000000000, 0.000000000000000000, 0.000000000000000000 ) ) ;
#225 = SHAPE_REPRESENTATION ( 'assembly0p2', ( #1006, #581 ), #867 ) ;
#226 = FACE_BOUND ( 'NONE', #856, .T. ) ;
#227 = DIRECTION ( 'NONE',  ( 1.028200003364277904E-16, 0.5432221286271869953, -0.8395890178949150240 ) ) ;
#228 = DIRECTION ( 'NONE',  ( 0.000000000000000000, 1.000000000000000000, 0.000000000000000000 ) ) ;
#229 = DIRECTION ( 'NONE',  ( 0.000000000000000000, 0.000000000000000000, 1.000000000000000000 ) ) ;
#230 = TOROIDAL_SURFACE ( 'NONE', #637, 10.40000000000000036, 0.5000000000000000000 ) ;
#231 = SHAPE_REPRESENTATION ( 'Anchor.STEP', ( #547 ), #972 ) ;
#232 = DIRECTION ( 'NONE',  ( 0.000000000000000000, -1.000000000000000000, 0.000000000000000000 ) ) ;
#233 = AXIS2_PLACEMENT_3D ( 'NONE', #25, #782, #8 ) ;
#234 = CARTESIAN_POINT ( 'NONE',  ( -6.324555320336760822, 2.399999999999999911, -9.000000000000000000 ) ) ;
#235 = EDGE_CURVE ( 'NONE', #536, #24, #55, .T. ) ;
#236 = AXIS2_PLACEMENT_3D ( 'NONE', #827, #409, #507 ) ;
#237 = FACE_OUTER_BOUND ( 'NONE', #445, .T. ) ;
#238 =( NAMED_UNIT ( * ) PLANE_ANGLE_UNIT ( ) SI_UNIT ( $, .RADIAN. ) );
#239 = EDGE_LOOP ( 'NONE', ( #912, #893 ) ) ;
#240 = DIRECTION ( 'NONE',  ( 0.000000000000000000, -1.000000000000000000, 0.000000000000000000 ) ) ;
#241 = DIRECTION ( 'NONE',  ( 0.000000000000000000, 0.000000000000000000, 1.000000000000000000 ) ) ;
#242 = ADVANCED_FACE ( 'NONE', ( #43 ), #643, .T. ) ;
#243 = LINE ( 'NONE', #478, #886 ) ;
#244 = B_SPLINE_CURVE_WITH_KNOTS ( 'NONE', 3,
 ( #291, #383, #101, #789, #14, #364, #703, #192, #466, #279, #615, #21, #716, #535 ),
 .UNSPECIFIED., .F., .F.,
 ( 4, 1, 2, 2, 1, 2, 2, 4 ),
 ( 0.000000000000000000, 0.1249999999999978351, 0.1874999999999967526, 0.2499999999999956701, 0.3749999999999960587, 0.4374999999999962252, 0.4999999999999964473, 1.000000000000000000 ),
 .UNSPECIFIED. ) ;
#245 = ORIENTED_EDGE ( 'NONE', *, *, #71, .T. ) ;
#246 = DIRECTION ( 'NONE',  ( -1.000000000000000000, -1.185846126156020475E-16, 0.000000000000000000 ) ) ;
#247 = DIRECTION ( 'NONE',  ( 0.000000000000000000, 0.000000000000000000, 1.000000000000000000 ) ) ;
#248 = DIRECTION ( 'NONE',  ( 0.000000000000000000, -1.000000000000000000, 0.000000000000000000 ) ) ;
#249 = EDGE_CURVE ( 'NONE', #760, #750, #718, .T. ) ;
#250 = ORIENTED_EDGE ( 'NONE', *, *, #311, .F. ) ;
#251 = DIRECTION ( 'NONE',  ( 0.000000000000000000, -1.000000000000000000, 0.000000000000000000 ) ) ;
#252 = PRODUCT_DEFINITION_FORMATION_WITH_SPECIFIED_SOURCE ( 'ANY', '', #849, .NOT_KNOWN. ) ;
#253 = AXIS2_PLACEMENT_3D ( 'NONE', #1015, #199, #468 ) ;
#254 = DIRECTION ( 'NONE',  ( 0.000000000000000000, -1.000000000000000000, 0.000000000000000000 ) ) ;
#255 = EDGE_CURVE ( 'NONE', #871, #832, #155, .T. ) ;
#256 = EDGE_LOOP ( 'NONE', ( #530, #280, #190, #197 ) ) ;
#257 = DIRECTION ( 'NONE',  ( -1.224646799147351975E-16, 0.000000000000000000, -1.000000000000000000 ) ) ;
#258 = DIRECTION ( 'NONE',  ( 0.000000000000000000, 1.000000000000000000, 0.000000000000000000 ) ) ;
#259 = ORIENTED_EDGE ( 'NONE', *, *, #370, .T. ) ;
#260 = SURFACE_SIDE_STYLE ('',( #27 ) ) ;
#261 = EDGE_LOOP ( 'NONE', ( #880, #743, #453, #614 ) ) ;
#262 = CARTESIAN_POINT ( 'NONE',  ( 6.103704704654881574, 2.610165497948589763, -9.000000000000003553 ) ) ;
#263 = ORIENTED_EDGE ( 'NONE', *, *, #213, .F. ) ;
#264 = DIRECTION ( 'NONE',  ( -1.224646799147351975E-16, 1.000000000000000000, 0.000000000000000000 ) ) ;
#265 = AXIS2_PLACEMENT_3D ( 'NONE', #234, #570, #828 ) ;
#266 = ORIENTED_EDGE ( 'NONE', *, *, #840, .T. ) ;
#267 = ADVANCED_FACE ( 'NONE', ( #927 ), #670, .T. ) ;
#268 = DIRECTION ( 'NONE',  ( -1.000000000000000000, 0.000000000000000000, 0.000000000000000000 ) ) ;
#269 = CIRCLE ( 'NONE', #855, 10.67161106431360018 ) ;
#270 = PRODUCT_RELATED_PRODUCT_CATEGORY ( 'part', '', ( #849 ) ) ;
#271 = AXIS2_PLACEMENT_3D ( 'NONE', #576, #986, #411 ) ;
#272 = ORIENTED_EDGE ( 'NONE', *, *, #13, .F. ) ;
#273 = APPLICATION_PROTOCOL_DEFINITION ( 'draft international standard', 'automotive_design', 1998, #432 ) ;
#274 = ORIENTED_EDGE ( 'NONE', *, *, #455, .T. ) ;
#275 = CARTESIAN_POINT ( 'NONE',  ( -5.896459854439671094E-48, 4.814824860968089633E-32, 0.000000000000000000 ) ) ;
#276 = EDGE_CURVE ( 'NONE', #24, #465, #308, .T. ) ;
#277 = CARTESIAN_POINT ( 'NONE',  ( 7.837739514543070781E-16, -0.6999999999999919620, 6.400000000000000355 ) ) ;
#278 = ORIENTED_EDGE ( 'NONE', *, *, #370, .F. ) ;
#279 = CARTESIAN_POINT ( 'NONE',  ( -6.067159735064558745, 2.562532935086306640, -9.000000000000001776 ) ) ;
#280 = ORIENTED_EDGE ( 'NONE', *, *, #381, .T. ) ;
#281 = ADVANCED_FACE ( 'NONE', ( #585 ), #70, .F. ) ;
#282 = APPLICATION_PROTOCOL_DEFINITION ( 'draft international standard', 'automotive_design', 1998, #631 ) ;
#283 = ORIENTED_EDGE ( 'NONE', *, *, #758, .T. ) ;
#284 = VECTOR ( 'NONE', #555, 1000.000000000000000 ) ;
#285 = DIRECTION ( 'NONE',  ( 1.000000000000000000, 0.000000000000000000, 0.000000000000000000 ) ) ;
#286 = CARTESIAN_POINT ( 'NONE',  ( 6.400000000000000355, 7.837739514543080642E-16, 7.837739514543080642E-16 ) ) ;
#287 = AXIS2_PLACEMENT_3D ( 'NONE', #165, #512, #851 ) ;
#288 = DIRECTION ( 'NONE',  ( -0.000000000000000000, 1.000000000000000000, 0.000000000000000000 ) ) ;
#289 = AXIS2_PLACEMENT_3D ( 'NONE', #396, #830, #738 ) ;
#290 = PRODUCT_DEFINITION ( 'UNKNOWN', '', #169, #765 ) ;
#291 = CARTESIAN_POINT ( 'NONE',  ( -6.148983655857279906, 2.772024682098680248, -9.000000000000000000 ) ) ;
#292 = DIRECTION ( 'NONE',  ( -1.224646799147351975E-16, 1.000000000000000000, 0.000000000000000000 ) ) ;
#293 =( REPRESENTATION_RELATIONSHIP ('NONE','NONE', #611, #647 ) REPRESENTATION_RELATIONSHIP_WITH_TRANSFORMATION ( #944 )SHAPE_REPRESENTATION_RELATIONSHIP( ) );
#294 = LINE ( 'NONE', #385, #937 ) ;
#295 = DIRECTION ( 'NONE',  ( -1.000000000000000000, -1.224646799147351975E-16, 0.000000000000000000 ) ) ;
#296 = EDGE_LOOP ( 'NONE', ( #943, #755, #795, #892, #34 ) ) ;
#297 = EDGE_CURVE ( 'NONE', #87, #330, #956, .T. ) ;
#298 = DIRECTION ( 'NONE',  ( 0.000000000000000000, 0.000000000000000000, 1.000000000000000000 ) ) ;
#299 = DIRECTION ( 'NONE',  ( 0.000000000000000000, 0.000000000000000000, -1.000000000000000000 ) ) ;
#300 = ORIENTED_EDGE ( 'NONE', *, *, #1032, .T. ) ;
#301 = DIRECTION ( 'NONE',  ( -1.185846126156011847E-16, 1.000000000000000000, 0.000000000000000000 ) ) ;
#302 = ORIENTED_EDGE ( 'NONE', *, *, #523, .F. ) ;
#303 = DIRECTION ( 'NONE',  ( 0.000000000000000000, -1.000000000000000000, 0.000000000000000000 ) ) ;
#304 = FACE_BOUND ( 'NONE', #336, .T. ) ;
#305 = CARTESIAN_POINT ( 'NONE',  ( 0.000000000000000000, 2.352230173151220072, 0.000000000000000000 ) ) ;
#306 = VECTOR ( 'NONE', #623, 1000.000000000000000 ) ;
#307 = DIRECTION ( 'NONE',  ( -1.000000000000000000, -1.224646799147351975E-16, 0.000000000000000000 ) ) ;
#308 = CIRCLE ( 'NONE', #452, 6.400000000000000355 ) ;
#309 = DIRECTION ( 'NONE',  ( 0.000000000000000000, 0.000000000000000000, -1.000000000000000000 ) ) ;
#310 = DIRECTION ( 'NONE',  ( -1.000000000000000000, 0.000000000000000000, 0.000000000000000000 ) ) ;
#311 = EDGE_CURVE ( 'NONE', #871, #809, #488, .T. ) ;
#312 = DIRECTION ( 'NONE',  ( 0.000000000000000000, -1.000000000000000000, 0.000000000000000000 ) ) ;
#313 = DIRECTION ( 'NONE',  ( 0.000000000000000000, -1.000000000000000000, 0.000000000000000000 ) ) ;
#314 = DIRECTION ( 'NONE',  ( -1.185846126156019735E-16, 1.000000000000000000, 0.000000000000000000 ) ) ;
#315 = LINE ( 'NONE', #650, #436 ) ;
#316 = CARTESIAN_POINT ( 'NONE',  ( 0.000000000000000000, -0.5000000000000000000, 0.000000000000000000 ) ) ;
#317 = CARTESIAN_POINT ( 'NONE',  ( 0.000000000000000000, 3.600000000000000089, 11.40000000000000036 ) ) ;
#318 = AXIS2_PLACEMENT_3D ( 'NONE', #862, #634, #952 ) ;
#319 = DIRECTION ( 'NONE',  ( 0.000000000000000000, -1.000000000000000000, 0.000000000000000000 ) ) ;
#320 = AXIS2_PLACEMENT_3D ( 'NONE', #389, #566, #817 ) ;
#321 = ORIENTED_EDGE ( 'NONE', *, *, #213, .T. ) ;
#322 = CARTESIAN_POINT ( 'NONE',  ( -2.000000000000000000, -0.5000000000000000000, 0.000000000000000000 ) ) ;
#323 = AXIS2_PLACEMENT_3D ( 'NONE', #88, #248, #441 ) ;
#324 = EDGE_CURVE ( 'NONE', #1100, #1089, #315, .T. ) ;
#325 = CIRCLE ( 'NONE', #470, 85.00000000000000000 ) ;
#326 = LINE ( 'NONE', #729, #191 ) ;
#327 =( GEOMETRIC_REPRESENTATION_CONTEXT ( 3 ) GLOBAL_UNCERTAINTY_ASSIGNED_CONTEXT ( ( #351 ) ) GLOBAL_UNIT_ASSIGNED_CONTEXT ( ( #479, #238, #557 ) ) REPRESENTATION_CONTEXT ( 'NONE', 'WORKASPACE' ) );
#328 = DIRECTION ( 'NONE',  ( 0.000000000000000000, 0.000000000000000000, -1.000000000000000000 ) ) ;
#329 = DIRECTION ( 'NONE',  ( -1.224646799147351975E-16, 1.000000000000000000, 0.000000000000000000 ) ) ;
#330 = VERTEX_POINT ( 'NONE', #322 ) ;
#331 = DIRECTION ( 'NONE',  ( -1.224646799147351975E-16, 1.000000000000000000, 0.000000000000000000 ) ) ;
#332 = EDGE_CURVE ( 'NONE', #1003, #502, #1099, .T. ) ;
#333 = CARTESIAN_POINT ( 'NONE',  ( 6.024933525414716939, 2.517666716184109088, -9.000000000000000000 ) ) ;
#334 = VERTEX_POINT ( 'NONE', #511 ) ;
#335 = CARTESIAN_POINT ( 'NONE',  ( 0.000000000000000000, 3.100000000000000089, 71.15000000000000568 ) ) ;
#336 = EDGE_LOOP ( 'NONE', ( #342, #525 ) ) ;
#337 = AXIS2_PLACEMENT_3D ( 'NONE', #519, #1016, #438 ) ;
#338 = CYLINDRICAL_SURFACE ( 'NONE', #1008, 10.90000000000000036 ) ;
#339 = PRODUCT_DEFINITION_FORMATION_WITH_SPECIFIED_SOURCE ( 'ANY', '', #344, .NOT_KNOWN. ) ;
#340 = AXIS2_PLACEMENT_3D ( 'NONE', #148, #64, #769 ) ;
#341 = CYLINDRICAL_SURFACE ( 'NONE', #619, 15.00000000000000000 ) ;
#342 = ORIENTED_EDGE ( 'NONE', *, *, #5, .F. ) ;
#343 = FILL_AREA_STYLE_COLOUR ( '', #50 ) ;
#344 = PRODUCT ( 'cap_anchor.STEP', 'cap_anchor.STEP', '', ( #613 ) ) ;
#345 = SPHERICAL_SURFACE ( 'NONE', #356, 50.00000000000000000 ) ;
#346 = ORIENTED_EDGE ( 'NONE', *, *, #594, .T. ) ;
#347 = CARTESIAN_POINT ( 'NONE',  ( 0.000000000000000000, 3.600000000000000089, 0.000000000000000000 ) ) ;
#348 = ITEM_DEFINED_TRANSFORMATION ( 'NONE', 'NONE', #581,  #783 ) ;
#349 = ORIENTED_EDGE ( 'NONE', *, *, #607, .T. ) ;
#350 = DIRECTION ( 'NONE',  ( 0.000000000000000000, 1.000000000000000000, 0.000000000000000000 ) ) ;
#351 = UNCERTAINTY_MEASURE_WITH_UNIT (LENGTH_MEASURE( 1.000000000000000082E-05 ), #479, 'distance_accuracy_value', 'NONE');
#352 = ORIENTED_EDGE ( 'NONE', *, *, #90, .T. ) ;
#353 =( NAMED_UNIT ( * ) PLANE_ANGLE_UNIT ( ) SI_UNIT ( $, .RADIAN. ) );
#354 = DIRECTION ( 'NONE',  ( 0.000000000000000000, 0.000000000000000000, 1.000000000000000000 ) ) ;
#355 = EDGE_CURVE ( 'NONE', #763, #472, #924, .T. ) ;
#356 = AXIS2_PLACEMENT_3D ( 'NONE', #918, #350, #268 ) ;
#357 = ORIENTED_EDGE ( 'NONE', *, *, #1074, .F. ) ;
#358 = CARTESIAN_POINT ( 'NONE',  ( 0.000000000000000000, 4.100000000000000533, 0.000000000000000000 ) ) ;
#359 = CLOSED_SHELL ( 'NONE', ( #164, #196, #529, #698, #242, #480, #1088, #267 ) ) ;
#360 = AXIS2_PLACEMENT_3D ( 'NONE', #221, #48, #492 ) ;
#361 = CIRCLE ( 'NONE', #801, 10.94322212862718047 ) ;
#362 = ORIENTED_EDGE ( 'NONE', *, *, #979, .T. ) ;
#363 = VERTEX_POINT ( 'NONE', #847 ) ;
#364 = CARTESIAN_POINT ( 'NONE',  ( -6.125939422576574422, 2.659348720071811112, -8.999999999999998224 ) ) ;
#365 = EDGE_CURVE ( 'NONE', #189, #3, #833, .T. ) ;
#366 = ORIENTED_EDGE ( 'NONE', *, *, #667, .F. ) ;
#367 = SHAPE_DEFINITION_REPRESENTATION ( #1034, #647 ) ;
#368 = ORIENTED_EDGE ( 'NONE', *, *, #381, .F. ) ;
#369 = CARTESIAN_POINT ( 'NONE',  ( 1.396097351027981833E-15, 0.000000000000000000, 11.40000000000000036 ) ) ;
#370 = EDGE_CURVE ( 'NONE', #87, #334, #426, .T. ) ;
#371 = DIRECTION ( 'NONE',  ( 0.000000000000000000, -1.000000000000000000, 0.000000000000000000 ) ) ;
#372 = AXIS2_PLACEMENT_3D ( 'NONE', #564, #59, #732 ) ;
#373 = VERTEX_POINT ( 'NONE', #761 ) ;
#374 = CIRCLE ( 'NONE', #850, 6.400000000000000355 ) ;
#375 = FACE_OUTER_BOUND ( 'NONE', #17, .T. ) ;
#376 = CARTESIAN_POINT ( 'NONE',  ( -2.948229927219834939E-48, 2.407412430484044816E-32, 0.000000000000000000 ) ) ;
#377 = CIRCLE ( 'NONE', #323, 10.73406232339097954 ) ;
#378 = AXIS2_PLACEMENT_3D ( 'NONE', #873, #546, #1033 ) ;
#379 = EDGE_LOOP ( 'NONE', ( #1030, #259, #776, #96 ) ) ;
#380 = MECHANICAL_DESIGN_GEOMETRIC_PRESENTATION_REPRESENTATION (  '', ( #522 ), #327 ) ;
#381 = EDGE_CURVE ( 'NONE', #450, #69, #170, .T. ) ;
#382 = ORIENTED_EDGE ( 'NONE', *, *, #660, .F. ) ;
#383 = CARTESIAN_POINT ( 'NONE',  ( -6.148983655857284347, 2.751853443555192236, -9.000000000000000000 ) ) ;
#384 = DIRECTION ( 'NONE',  ( 0.000000000000000000, -1.000000000000000000, 0.000000000000000000 ) ) ;
#385 = CARTESIAN_POINT ( 'NONE',  ( -6.324555320336760822, 2.399999999999999911, -9.000000000000000000 ) ) ;
#386 = CARTESIAN_POINT ( 'NONE',  ( 0.000000000000000000, 0.000000000000000000, 0.000000000000000000 ) ) ;
#387 = ORIENTED_EDGE ( 'NONE', *, *, #922, .F. ) ;
#388 = CARTESIAN_POINT ( 'NONE',  ( 6.291378615214670234, 3.100000000000000089, -13.61684820801127849 ) ) ;
#389 = CARTESIAN_POINT ( 'NONE',  ( 0.000000000000000000, -0.6999999999999919620, 0.000000000000000000 ) ) ;
#390 = DIRECTION ( 'NONE',  ( 0.000000000000000000, 0.000000000000000000, 1.000000000000000000 ) ) ;
#391 = DIRECTION ( 'NONE',  ( -1.224646799147351975E-16, 1.000000000000000000, 0.000000000000000000 ) ) ;
#392 = ADVANCED_FACE ( 'NONE', ( #1001 ), #338, .F. ) ;
#393 = DIRECTION ( 'NONE',  ( 0.000000000000000000, 0.000000000000000000, -1.000000000000000000 ) ) ;
#394 = CIRCLE ( 'NONE', #7, 2.000000000000000000 ) ;
#395 = DIRECTION ( 'NONE',  ( 0.000000000000000000, 0.5432221286271869953, 0.8395890178949150240 ) ) ;
#396 = CARTESIAN_POINT ( 'NONE',  ( 0.000000000000000000, 0.000000000000000000, 0.000000000000000000 ) ) ;
#397 = CIRCLE ( 'NONE', #919, 10.90000000000000036 ) ;
#398 = AXIS2_PLACEMENT_3D ( 'NONE', #739, #301, #129 ) ;
#399 = DIRECTION ( 'NONE',  ( 0.000000000000000000, 0.000000000000000000, -1.000000000000000000 ) ) ;
#400 = CARTESIAN_POINT ( 'NONE',  ( -7.036069511671510845, 0.000000000000000000, 0.000000000000000000 ) ) ;
#401 = ADVANCED_FACE ( 'NONE', ( #913 ), #990, .T. ) ;
#402 = CARTESIAN_POINT ( 'NONE',  ( 2.000000000000000000, -0.5000000000000000000, 2.449293598294704935E-16 ) ) ;
#403 = DIRECTION ( 'NONE',  ( -0.000000000000000000, 1.000000000000000000, 0.000000000000000000 ) ) ;
#404 = DIRECTION ( 'NONE',  ( 0.000000000000000000, 1.000000000000000000, 0.000000000000000000 ) ) ;
#405 = CARTESIAN_POINT ( 'NONE',  ( 0.000000000000000000, 1.932435664203765002, 10.94322212862718047 ) ) ;
#406 = CARTESIAN_POINT ( 'NONE',  ( -6.400000000000000355, -0.5000000000000000000, 0.000000000000000000 ) ) ;
#407 = EDGE_CURVE ( 'NONE', #832, #542, #835, .T. ) ;
#408 = VERTEX_POINT ( 'NONE', #212 ) ;
#409 = DIRECTION ( 'NONE',  ( -1.084202172485503818E-16, 1.000000000000000000, 0.000000000000000000 ) ) ;
#410 = CARTESIAN_POINT ( 'NONE',  ( 0.000000000000000000, 2.772024682098680248, -11.40000000000000036 ) ) ;
#411 = DIRECTION ( 'NONE',  ( 0.000000000000000000, 0.000000000000000000, -1.000000000000000000 ) ) ;
#412 = CARTESIAN_POINT ( 'NONE',  ( 0.000000000000000000, 2.772024682098680248, 10.40000000000000036 ) ) ;
#413 = VECTOR ( 'NONE', #395, 1000.000000000000000 ) ;
#414 = VERTEX_POINT ( 'NONE', #808 ) ;
#415 = CARTESIAN_POINT ( 'NONE',  ( 0.000000000000000000, -0.6188667858132650412, 0.000000000000000000 ) ) ;
#416 = EDGE_CURVE ( 'NONE', #443, #690, #397, .T. ) ;
#417 = AXIS2_PLACEMENT_3D ( 'NONE', #995, #574, #146 ) ;
#418 = DIRECTION ( 'NONE',  ( 1.000000000000000000, 0.000000000000000000, 0.000000000000000000 ) ) ;
#419 = FACE_OUTER_BOUND ( 'NONE', #702, .T. ) ;
#420 = EDGE_LOOP ( 'NONE', ( #578, #10, #266 ) ) ;
#421 = DIRECTION ( 'NONE',  ( 0.000000000000000000, 0.000000000000000000, -1.000000000000000000 ) ) ;
#422 = DIRECTION ( 'NONE',  ( 1.000000000000000000, 0.000000000000000000, 0.000000000000000000 ) ) ;
#423 = ORIENTED_EDGE ( 'NONE', *, *, #1084, .F. ) ;
#424 = CARTESIAN_POINT ( 'NONE',  ( 1.306895433165712056E-15, 2.352230173151220072, -10.67161106431360018 ) ) ;
#425 = ORIENTED_EDGE ( 'NONE', *, *, #780, .F. ) ;
#426 = LINE ( 'NONE', #989, #675 ) ;
#427 =( NAMED_UNIT ( * ) PLANE_ANGLE_UNIT ( ) SI_UNIT ( $, .RADIAN. ) );
#428 = DIRECTION ( 'NONE',  ( -1.224646799147351975E-16, 1.000000000000000000, 0.000000000000000000 ) ) ;
#429 = ORIENTED_EDGE ( 'NONE', *, *, #249, .T. ) ;
#430 = AXIS2_PLACEMENT_3D ( 'NONE', #1105, #86, #66 ) ;
#431 = DIRECTION ( 'NONE',  ( 0.000000000000000000, 0.000000000000000000, -1.000000000000000000 ) ) ;
#432 = APPLICATION_CONTEXT ( 'automotive_design' ) ;
#433 = VECTOR ( 'NONE', #941, 1000.000000000000000 ) ;
#434 = SHAPE_REPRESENTATION_RELATIONSHIP ( 'NONE' , 'NONE' ,  #231, #15 ) ;
#435 = DIRECTION ( 'NONE',  ( 0.000000000000000000, 0.000000000000000000, -1.000000000000000000 ) ) ;
#436 = VECTOR ( 'NONE', #232, 1000.000000000000000 ) ;
#437 = EDGE_LOOP ( 'NONE', ( #115, #636, #799, #548 ) ) ;
#438 = DIRECTION ( 'NONE',  ( 1.000000000000000000, 0.000000000000000000, 0.000000000000000000 ) ) ;
#439 = PRODUCT_DEFINITION_SHAPE ( 'NONE', 'NONE',  #662 ) ;
#440 = ORIENTED_EDGE ( 'NONE', *, *, #551, .T. ) ;
#441 = DIRECTION ( 'NONE',  ( 1.776356839400250267E-15, 0.000000000000000000, 1.000000000000000000 ) ) ;
#442 = EDGE_CURVE ( 'NONE', #686, #1092, #936, .T. ) ;
#443 = VERTEX_POINT ( 'NONE', #1045 ) ;
#444 = CARTESIAN_POINT ( 'NONE',  ( 6.400000000000000355, -0.6999999999999909628, 7.837739514543110224E-16 ) ) ;
#445 = EDGE_LOOP ( 'NONE', ( #218, #962, #454, #1048 ) ) ;
#446 = FACE_OUTER_BOUND ( 'NONE', #727, .T. ) ;
#447 = ORIENTED_EDGE ( 'NONE', *, *, #128, .F. ) ;
#448 = B_SPLINE_CURVE_WITH_KNOTS ( 'NONE', 3,
 ( #72, #845, #2, #759, #333, #764, #1017, #691, #262, #67, #596, #172 ),
 .UNSPECIFIED., .F., .F.,
 ( 4, 1, 1, 2, 2, 2, 4 ),
 ( 0.000000000000000000, 0.2500000000000026645, 0.3750000000000053291, 0.4375000000000055511, 0.5000000000000057732, 0.7500000000000028866, 1.000000000000000000 ),
 .UNSPECIFIED. ) ;
#449 = EDGE_CURVE ( 'NONE', #99, #414, #700, .T. ) ;
#450 = VERTEX_POINT ( 'NONE', #179 ) ;
#451 = DIRECTION ( 'NONE',  ( -0.000000000000000000, 1.000000000000000000, 0.000000000000000000 ) ) ;
#452 = AXIS2_PLACEMENT_3D ( 'NONE', #908, #251, #421 ) ;
#453 = ORIENTED_EDGE ( 'NONE', *, *, #1064, .F. ) ;
#454 = ORIENTED_EDGE ( 'NONE', *, *, #183, .T. ) ;
#455 = EDGE_CURVE ( 'NONE', #750, #954, #748, .T. ) ;
#456 = CARTESIAN_POINT ( 'NONE',  ( 0.000000000000000000, 0.000000000000000000, 0.000000000000000000 ) ) ;
#457 = PRODUCT_DEFINITION_SHAPE ( 'NONE', 'NONE',  #1106 ) ;
#458 = ORIENTED_EDGE ( 'NONE', *, *, #45, .F. ) ;
#459 = VERTEX_POINT ( 'NONE', #36 ) ;
#460 = CARTESIAN_POINT ( 'NONE',  ( 0.000000000000000000, 0.000000000000000000, 0.000000000000000000 ) ) ;
#461 = FACE_OUTER_BOUND ( 'NONE', #874, .T. ) ;
#462 = ORIENTED_EDGE ( 'NONE', *, *, #774, .T. ) ;
#463 = CARTESIAN_POINT ( 'NONE',  ( -6.291378615214650694, 3.100000000000000089, -13.61684820801127849 ) ) ;
#464 = AXIS2_PLACEMENT_3D ( 'NONE', #644, #312, #219 ) ;
#465 = VERTEX_POINT ( 'NONE', #719 ) ;
#466 = CARTESIAN_POINT ( 'NONE',  ( -6.080542619906180946, 2.579649245173349037, -8.999999999999998224 ) ) ;
#467 =( REPRESENTATION_RELATIONSHIP ('NONE','NONE', #611, #231 ) REPRESENTATION_RELATIONSHIP_WITH_TRANSFORMATION ( #688 )SHAPE_REPRESENTATION_RELATIONSHIP( ) );
#468 = DIRECTION ( 'NONE',  ( -1.000000000000000000, -1.224646799147351975E-16, 0.000000000000000000 ) ) ;
#469 = AXIS2_PLACEMENT_3D ( 'NONE', #335, #925, #1013 ) ;
#470 = AXIS2_PLACEMENT_3D ( 'NONE', #473, #319, #390 ) ;
#471 = ORIENTED_EDGE ( 'NONE', *, *, #897, .T. ) ;
#472 = VERTEX_POINT ( 'NONE', #599 ) ;
#473 = CARTESIAN_POINT ( 'NONE',  ( 0.000000000000000000, 4.100000000000000533, 71.15000000000000568 ) ) ;
#474 = EDGE_CURVE ( 'NONE', #443, #954, #733, .T. ) ;
#475 = CARTESIAN_POINT ( 'NONE',  ( 7.837739514543070781E-16, 0.000000000000000000, 6.400000000000000355 ) ) ;
#476 = ORIENTED_EDGE ( 'NONE', *, *, #831, .T. ) ;
#477 = DIRECTION ( 'NONE',  ( 2.028422091276168244E-16, -1.000000000000000000, 0.000000000000000000 ) ) ;
#478 = CARTESIAN_POINT ( 'NONE',  ( -6.148983655857279906, 0.000000000000000000, -9.000000000000000000 ) ) ;
#479 =( LENGTH_UNIT ( ) NAMED_UNIT ( * ) SI_UNIT ( .MILLI., .METRE. ) );
#480 = ADVANCED_FACE ( 'NONE', ( #211 ), #708, .T. ) ;
#481 = FACE_OUTER_BOUND ( 'NONE', #208, .T. ) ;
#482 = AXIS2_PLACEMENT_3D ( 'NONE', #41, #736, #1066 ) ;
#483 = CARTESIAN_POINT ( 'NONE',  ( 1.098705477310661831E-15, -0.6188667858132650412, -7.000000000000000000 ) ) ;
#484 = MANIFOLD_SOLID_BREP ( 'NONE', #359 ) ;
#485 = SURFACE_STYLE_FILL_AREA ( #826 ) ;
#486 = AXIS2_PLACEMENT_3D ( 'NONE', #747, #1071, #572 ) ;
#487 = PLANE ( 'NONE',  #1010 ) ;
#488 = CIRCLE ( 'NONE', #807, 50.00000000000000000 ) ;
#489 = CARTESIAN_POINT ( 'NONE',  ( 0.000000000000000000, 2.772024682098680248, 0.000000000000000000 ) ) ;
#490 = EDGE_CURVE ( 'NONE', #1003, #616, #85, .T. ) ;
#491 = DIRECTION ( 'NONE',  ( 0.000000000000000000, 0.000000000000000000, -1.000000000000000000 ) ) ;
#492 = DIRECTION ( 'NONE',  ( -1.000000000000000000, -1.084202172485504434E-16, 0.000000000000000000 ) ) ;
#493 = PLANE ( 'NONE',  #265 ) ;
#494 = DIRECTION ( 'NONE',  ( 0.000000000000000000, -1.000000000000000000, 0.000000000000000000 ) ) ;
#495 = DIRECTION ( 'NONE',  ( 0.000000000000000000, 1.000000000000000000, 0.000000000000000000 ) ) ;
#496 = EDGE_CURVE ( 'NONE', #542, #686, #869, .T. ) ;
#497 = ORIENTED_EDGE ( 'NONE', *, *, #222, .T. ) ;
#498 = CARTESIAN_POINT ( 'NONE',  ( 0.000000000000000000, 0.000000000000000000, 0.000000000000000000 ) ) ;
#499 = DIRECTION ( 'NONE',  ( 0.000000000000000000, -1.000000000000000000, 0.000000000000000000 ) ) ;
#500 = VECTOR ( 'NONE', #1039, 1000.000000000000000 ) ;
#501 = AXIS2_PLACEMENT_3D ( 'NONE', #592, #841, #1002 ) ;
#502 = VERTEX_POINT ( 'NONE', #444 ) ;
#503 = CARTESIAN_POINT ( 'NONE',  ( 0.000000000000000000, 0.000000000000000000, 0.000000000000000000 ) ) ;
#504 = CIRCLE ( 'NONE', #398, 6.400000000000000355 ) ;
#505 = CYLINDRICAL_SURFACE ( 'NONE', #469, 85.00000000000000000 ) ;
#506 = ORIENTED_EDGE ( 'NONE', *, *, #810, .T. ) ;
#507 = DIRECTION ( 'NONE',  ( -1.000000000000000000, -1.084202172485504434E-16, 0.000000000000000000 ) ) ;
#508 = EDGE_CURVE ( 'NONE', #502, #940, #779, .T. ) ;
#509 = FACE_OUTER_BOUND ( 'NONE', #697, .T. ) ;
#510 = EDGE_LOOP ( 'NONE', ( #104, #975, #887, #440, #272 ) ) ;
#511 = CARTESIAN_POINT ( 'NONE',  ( 2.000000000000000000, 2.449293598294704935E-16, 2.449293598294704935E-16 ) ) ;
#512 = DIRECTION ( 'NONE',  ( 0.000000000000000000, 1.000000000000000000, 0.000000000000000000 ) ) ;
#513 = PRODUCT ( 'Anchor.STEP', 'Anchor.STEP', '', ( #180 ) ) ;
#514 = CIRCLE ( 'NONE', #26, 15.00000000000000000 ) ;
#515 = ORIENTED_EDGE ( 'NONE', *, *, #1009, .T. ) ;
#516 = PRESENTATION_STYLE_ASSIGNMENT (( #859 ) ) ;
#517 = CIRCLE ( 'NONE', #29, 2.000000000000000000 ) ;
#518 = CIRCLE ( 'NONE', #656, 50.00000000000000000 ) ;
#519 = CARTESIAN_POINT ( 'NONE',  ( 0.000000000000000000, 0.000000000000000000, 0.000000000000000000 ) ) ;
#520 = EDGE_LOOP ( 'NONE', ( #929, #107 ) ) ;
#521 = DIRECTION ( 'NONE',  ( -1.000000000000000000, -2.028422091276168244E-16, 0.000000000000000000 ) ) ;
#522 = STYLED_ITEM ( 'NONE', ( #562 ), #102 ) ;
#523 = EDGE_CURVE ( 'NONE', #69, #450, #103, .T. ) ;
#524 = UNCERTAINTY_MEASURE_WITH_UNIT (LENGTH_MEASURE( 1.000000000000000082E-05 ), #844, 'distance_accuracy_value', 'NONE');
#525 = ORIENTED_EDGE ( 'NONE', *, *, #449, .F. ) ;
#526 = ORIENTED_EDGE ( 'NONE', *, *, #76, .F. ) ;
#527 = CARTESIAN_POINT ( 'NONE',  ( 0.000000000000000000, 48.88870839213300457, 0.000000000000000000 ) ) ;
#528 = EDGE_LOOP ( 'NONE', ( #425, #94, #672, #861 ) ) ;
#529 = ADVANCED_FACE ( 'NONE', ( #461 ), #797, .T. ) ;
#530 = ORIENTED_EDGE ( 'NONE', *, *, #1032, .F. ) ;
#531 = CYLINDRICAL_SURFACE ( 'NONE', #988, 2.000000000000000000 ) ;
#532 = EDGE_LOOP ( 'NONE', ( #1018, #382, #784, #462 ) ) ;
#533 = CIRCLE ( 'NONE', #852, 11.40000000000000036 ) ;
#534 = ORIENTED_EDGE ( 'NONE', *, *, #922, .T. ) ;
#535 = CARTESIAN_POINT ( 'NONE',  ( -5.849794352149629617, 2.399999999999999911, -9.000000000000000000 ) ) ;
#536 = VERTEX_POINT ( 'NONE', #545 ) ;
#537 = ORIENTED_EDGE ( 'NONE', *, *, #916, .F. ) ;
#538 = CARTESIAN_POINT ( 'NONE',  ( -6.400000000000000355, -0.5000000000000000000, 0.000000000000000000 ) ) ;
#539 = DIRECTION ( 'NONE',  ( 1.028200003364277904E-16, 0.5432221286271869953, -0.8395890178949150240 ) ) ;
#540 = DIRECTION ( 'NONE',  ( 1.000000000000000000, 0.000000000000000000, 0.000000000000000000 ) ) ;
#541 = DIRECTION ( 'NONE',  ( -1.224646799147351975E-16, 1.000000000000000000, 0.000000000000000000 ) ) ;
#542 = VERTEX_POINT ( 'NONE', #1063 ) ;
#543 = FACE_BOUND ( 'NONE', #520, .T. ) ;
#544 = ADVANCED_FACE ( 'NONE', ( #978 ), #1097, .F. ) ;
#545 = CARTESIAN_POINT ( 'NONE',  ( 7.837739514543059934E-16, -0.5000000000000000000, 6.400000000000000355 ) ) ;
#546 = DIRECTION ( 'NONE',  ( 0.000000000000000000, -1.000000000000000000, 0.000000000000000000 ) ) ;
#547 = AXIS2_PLACEMENT_3D ( 'NONE', #159, #666, #418 ) ;
#548 = ORIENTED_EDGE ( 'NONE', *, *, #150, .F. ) ;
#549 = LINE ( 'NONE', #991, #49 ) ;
#550 = AXIS2_PLACEMENT_3D ( 'NONE', #905, #494, #60 ) ;
#551 = EDGE_CURVE ( 'NONE', #465, #363, #890, .T. ) ;
#552 = EDGE_LOOP ( 'NONE', ( #1026, #681 ) ) ;
#553 = AXIS2_PLACEMENT_3D ( 'NONE', #224, #52, #822 ) ;
#554 = ORIENTED_EDGE ( 'NONE', *, *, #958, .T. ) ;
#555 = DIRECTION ( 'NONE',  ( 0.000000000000000000, 1.000000000000000000, 0.000000000000000000 ) ) ;
#556 = CARTESIAN_POINT ( 'NONE',  ( -6.148983655857279906, 2.772024682098680248, -9.000000000000000000 ) ) ;
#557 =( NAMED_UNIT ( * ) SI_UNIT ( $, .STERADIAN. ) SOLID_ANGLE_UNIT ( ) );
#558 = ADVANCED_FACE ( 'NONE', ( #993 ), #737, .T. ) ;
#559 = CARTESIAN_POINT ( 'NONE',  ( 0.000000000000000000, 2.399999999999999911, 0.000000000000000000 ) ) ;
#560 = CYLINDRICAL_SURFACE ( 'NONE', #953, 15.00000000000000000 ) ;
#561 = FACE_BOUND ( 'NONE', #552, .T. ) ;
#562 = PRESENTATION_STYLE_ASSIGNMENT (( #135 ) ) ;
#563 = CARTESIAN_POINT ( 'NONE',  ( 0.000000000000000000, 0.000000000000000000, 0.000000000000000000 ) ) ;
#564 = CARTESIAN_POINT ( 'NONE',  ( 0.000000000000000000, -0.6188667858132650412, 0.000000000000000000 ) ) ;
#565 = AXIS2_PLACEMENT_3D ( 'NONE', #456, #707, #699 ) ;
#566 = DIRECTION ( 'NONE',  ( 0.000000000000000000, -1.000000000000000000, 0.000000000000000000 ) ) ;
#567 = FACE_OUTER_BOUND ( 'NONE', #239, .T. ) ;
#568 = CARTESIAN_POINT ( 'NONE',  ( 6.148983655857279906, 0.000000000000000000, -9.000000000000000000 ) ) ;
#569 = AXIS2_PLACEMENT_3D ( 'NONE', #131, #58, #1004 ) ;
#570 = DIRECTION ( 'NONE',  ( 0.000000000000000000, 0.000000000000000000, 1.000000000000000000 ) ) ;
#571 = ADVANCED_FACE ( 'NONE', ( #561, #829 ), #900, .F. ) ;
#572 = DIRECTION ( 'NONE',  ( -1.000000000000000000, 0.000000000000000000, 0.000000000000000000 ) ) ;
#573 = PRODUCT_DEFINITION_CONTEXT ( 'detailed design', #712, 'design' ) ;
#574 = DIRECTION ( 'NONE',  ( 0.000000000000000000, 1.000000000000000000, 0.000000000000000000 ) ) ;
#575 = ORIENTED_EDGE ( 'NONE', *, *, #255, .T. ) ;
#576 = CARTESIAN_POINT ( 'NONE',  ( 0.000000000000000000, -0.6999999999999919620, 0.000000000000000000 ) ) ;
#577 = DIRECTION ( 'NONE',  ( 0.000000000000000000, 1.000000000000000000, 0.000000000000000000 ) ) ;
#578 = ORIENTED_EDGE ( 'NONE', *, *, #71, .F. ) ;
#579 =( NAMED_UNIT ( * ) PLANE_ANGLE_UNIT ( ) SI_UNIT ( $, .RADIAN. ) );
#580 = CYLINDRICAL_SURFACE ( 'NONE', #853, 2.000000000000000000 ) ;
#581 = AXIS2_PLACEMENT_3D ( 'NONE', #754, #247, #422 ) ;
#582 = EDGE_CURVE ( 'NONE', #414, #967, #1056, .T. ) ;
#583 = AXIS2_PLACEMENT_3D ( 'NONE', #415, #1082, #677 ) ;
#584 = ORIENTED_EDGE ( 'NONE', *, *, #508, .F. ) ;
#585 = FACE_OUTER_BOUND ( 'NONE', #794, .T. ) ;
#586 = AXIS2_PLACEMENT_3D ( 'NONE', #412, #1065, #983 ) ;
#587 =( LENGTH_UNIT ( ) NAMED_UNIT ( * ) SI_UNIT ( .MILLI., .METRE. ) );
#588 = DIRECTION ( 'NONE',  ( 0.000000000000000000, 0.000000000000000000, -1.000000000000000000 ) ) ;
#589 = ORIENTED_EDGE ( 'NONE', *, *, #249, .F. ) ;
#590 = CARTESIAN_POINT ( 'NONE',  ( 8.572527594031369652E-17, -0.6999999999999919620, 0.000000000000000000 ) ) ;
#591 = ADVANCED_FACE ( 'NONE', ( #661 ), #1025, .T. ) ;
#592 = CARTESIAN_POINT ( 'NONE',  ( 0.000000000000000000, 2.772024682098680248, 0.000000000000000000 ) ) ;
#593 = VERTEX_POINT ( 'NONE', #405 ) ;
#594 = EDGE_CURVE ( 'NONE', #690, #1035, #243, .T. ) ;
#595 = ORIENTED_EDGE ( 'NONE', *, *, #949, .F. ) ;
#596 = CARTESIAN_POINT ( 'NONE',  ( 6.148983655857279906, 2.730897748809888004, -9.000000000000000000 ) ) ;
#597 = ORIENTED_EDGE ( 'NONE', *, *, #984, .T. ) ;
#598 = VERTEX_POINT ( 'NONE', #888 ) ;
#599 = CARTESIAN_POINT ( 'NONE',  ( 2.449293598294704935E-16, -0.5000000000000000000, 2.000000000000000000 ) ) ;
#600 = PRESENTATION_LAYER_ASSIGNMENT (  '', '', ( #694 ) ) ;
#601 = CIRCLE ( 'NONE', #138, 85.00000000000000000 ) ;
#602 = APPLICATION_PROTOCOL_DEFINITION ( 'draft international standard', 'automotive_design', 1998, #712 ) ;
#603 = AXIS2_PLACEMENT_3D ( 'NONE', #1072, #731, #1057 ) ;
#604 = ORIENTED_EDGE ( 'NONE', *, *, #753, .F. ) ;
#605 = CARTESIAN_POINT ( 'NONE',  ( 0.000000000000000000, 2.399999999999999911, -10.73406232339097954 ) ) ;
#606 = AXIS2_PLACEMENT_3D ( 'NONE', #376, #292, #628 ) ;
#607 = EDGE_CURVE ( 'NONE', #502, #1003, #1028, .T. ) ;
#608 = ORIENTED_EDGE ( 'NONE', *, *, #416, .F. ) ;
#609 = EDGE_LOOP ( 'NONE', ( #878, #715, #791, #554 ) ) ;
#610 = DIRECTION ( 'NONE',  ( 0.000000000000000000, 0.000000000000000000, 1.000000000000000000 ) ) ;
#611 = SHAPE_REPRESENTATION ( 'assembly0p2.STEP', ( #783, #136, #337 ), #1058 ) ;
#612 = FACE_BOUND ( 'NONE', #693, .T. ) ;
#613 = PRODUCT_CONTEXT ( 'NONE', #432, 'mechanical' ) ;
#614 = ORIENTED_EDGE ( 'NONE', *, *, #490, .F. ) ;
#615 = CARTESIAN_POINT ( 'NONE',  ( -6.058710890912681890, 2.552608842260688959, -8.999999999999998224 ) ) ;
#616 = VERTEX_POINT ( 'NONE', #982 ) ;
#617 = AXIS2_PLACEMENT_3D ( 'NONE', #820, #477, #56 ) ;
#618 =( NAMED_UNIT ( * ) SI_UNIT ( $, .STERADIAN. ) SOLID_ANGLE_UNIT ( ) );
#619 = AXIS2_PLACEMENT_3D ( 'NONE', #1085, #685, #668 ) ;
#620 = ORIENTED_EDGE ( 'NONE', *, *, #810, .F. ) ;
#621 = CYLINDRICAL_SURFACE ( 'NONE', #565, 11.40000000000000036 ) ;
#622 = AXIS2_PLACEMENT_3D ( 'NONE', #590, #658, #246 ) ;
#623 = DIRECTION ( 'NONE',  ( -1.224646799147351975E-16, 1.000000000000000000, 0.000000000000000000 ) ) ;
#624 = DIRECTION ( 'NONE',  ( 1.000000000000000000, 0.000000000000000000, 0.000000000000000000 ) ) ;
#625 = ORIENTED_EDGE ( 'NONE', *, *, #955, .T. ) ;
#626 = CARTESIAN_POINT ( 'NONE',  ( 0.000000000000000000, 2.772024682098680248, 0.000000000000000000 ) ) ;
#627 = PRODUCT_DEFINITION_SHAPE ( 'NONE', 'NONE',  #1107 ) ;
#628 = DIRECTION ( 'NONE',  ( 1.000000000000000000, 1.224646799147351975E-16, 0.000000000000000000 ) ) ;
#629 = ORIENTED_EDGE ( 'NONE', *, *, #297, .F. ) ;
#630 = LINE ( 'NONE', #463, #734 ) ;
#631 = APPLICATION_CONTEXT ( 'automotive_design' ) ;
#632 = ORIENTED_EDGE ( 'NONE', *, *, #255, .F. ) ;
#633 = EDGE_CURVE ( 'NONE', #593, #1092, #361, .T. ) ;
#634 = DIRECTION ( 'NONE',  ( 0.000000000000000000, -1.000000000000000000, 0.000000000000000000 ) ) ;
#635 = CARTESIAN_POINT ( 'NONE',  ( 0.000000000000000000, 2.352230173151220072, 0.000000000000000000 ) ) ;
#636 = ORIENTED_EDGE ( 'NONE', *, *, #30, .T. ) ;
#637 = AXIS2_PLACEMENT_3D ( 'NONE', #626, #95, #205 ) ;
#638 = ORIENTED_EDGE ( 'NONE', *, *, #793, .F. ) ;
#639 = PRODUCT_DEFINITION_FORMATION_WITH_SPECIFIED_SOURCE ( 'ANY', '', #513, .NOT_KNOWN. ) ;
#640 = DIRECTION ( 'NONE',  ( 0.000000000000000000, 1.000000000000000000, 0.000000000000000000 ) ) ;
#641 = MECHANICAL_DESIGN_GEOMETRIC_PRESENTATION_REPRESENTATION (  '', ( #694 ), #934 ) ;
#642 = FACE_OUTER_BOUND ( 'NONE', #803, .T. ) ;
#643 = CYLINDRICAL_SURFACE ( 'NONE', #823, 6.400000000000000355 ) ;
#644 = CARTESIAN_POINT ( 'NONE',  ( 0.000000000000000000, -0.5000000000000000000, 0.000000000000000000 ) ) ;
#645 = FACE_OUTER_BOUND ( 'NONE', #186, .T. ) ;
#646 = FILL_AREA_STYLE_COLOUR ( '', #83 ) ;
#647 = SHAPE_REPRESENTATION ( 'cap_anchor.STEP', ( #547 ), #1022 ) ;
#648 = DIRECTION ( 'NONE',  ( 0.000000000000000000, -1.000000000000000000, 0.000000000000000000 ) ) ;
#649 = CARTESIAN_POINT ( 'NONE',  ( 0.000000000000000000, 0.000000000000000000, 7.036069511671510845 ) ) ;
#650 = CARTESIAN_POINT ( 'NONE',  ( 0.000000000000000000, 0.000000000000000000, -2.000000000000000000 ) ) ;
#651 = FACE_OUTER_BOUND ( 'NONE', #1014, .T. ) ;
#652 = CIRCLE ( 'NONE', #152, 2.000000000000000000 ) ;
#653 = CARTESIAN_POINT ( 'NONE',  ( 0.000000000000000000, 2.227975317901319752, 0.000000000000000000 ) ) ;
#654 = CIRCLE ( 'NONE', #320, 6.400000000000000355 ) ;
#655 = CARTESIAN_POINT ( 'NONE',  ( 5.849794352149619847, 2.399999999999999911, -9.000000000000000000 ) ) ;
#656 = AXIS2_PLACEMENT_3D ( 'NONE', #527, #298, #198 ) ;
#657 = ORIENTED_EDGE ( 'NONE', *, *, #365, .F. ) ;
#658 = DIRECTION ( 'NONE',  ( -1.185846126156011847E-16, 1.000000000000000000, 0.000000000000000000 ) ) ;
#659 = VECTOR ( 'NONE', #153, 1000.000000000000000 ) ;
#660 = EDGE_CURVE ( 'NONE', #1100, #763, #517, .T. ) ;
#661 = FACE_OUTER_BOUND ( 'NONE', #842, .T. ) ;
#662 = PRODUCT_DEFINITION ( 'UNKNOWN', '', #252, #573 ) ;
#663 = DIRECTION ( 'NONE',  ( 0.000000000000000000, 0.000000000000000000, 1.000000000000000000 ) ) ;
#664 = EDGE_LOOP ( 'NONE', ( #706, #300, #274, #40 ) ) ;
#665 = CARTESIAN_POINT ( 'NONE',  ( 0.000000000000000000, 0.000000000000000000, 0.000000000000000000 ) ) ;
#666 = DIRECTION ( 'NONE',  ( 0.000000000000000000, 0.000000000000000000, 1.000000000000000000 ) ) ;
#667 = EDGE_CURVE ( 'NONE', #809, #24, #654, .T. ) ;
#668 = DIRECTION ( 'NONE',  ( 0.000000000000000000, 0.000000000000000000, 1.000000000000000000 ) ) ;
#669 = ORIENTED_EDGE ( 'NONE', *, *, #222, .F. ) ;
#670 = CYLINDRICAL_SURFACE ( 'NONE', #921, 2.000000000000000000 ) ;
#671 =( NAMED_UNIT ( * ) SI_UNIT ( $, .STERADIAN. ) SOLID_ANGLE_UNIT ( ) );
#672 = ORIENTED_EDGE ( 'NONE', *, *, #1084, .T. ) ;
#673 = CARTESIAN_POINT ( 'NONE',  ( 0.000000000000000000, 2.464992601399714989, 15.00000000000000000 ) ) ;
#674 = ADVANCED_FACE ( 'NONE', ( #237 ), #741, .T. ) ;
#675 = VECTOR ( 'NONE', #997, 1000.000000000000000 ) ;
#676 = ORIENTED_EDGE ( 'NONE', *, *, #106, .F. ) ;
#677 = DIRECTION ( 'NONE',  ( 0.000000000000000000, 0.000000000000000000, -1.000000000000000000 ) ) ;
#678 = AXIS2_PLACEMENT_3D ( 'NONE', #1012, #843, #756 ) ;
#679 = CARTESIAN_POINT ( 'NONE',  ( 4.336808689942014778E-16, 67.41666666666669983, 0.000000000000000000 ) ) ;
#680 = EDGE_CURVE ( 'NONE', #69, #954, #730, .T. ) ;
#681 = ORIENTED_EDGE ( 'NONE', *, *, #949, .T. ) ;
#682 = DIRECTION ( 'NONE',  ( -1.224646799147353454E-16, 0.000000000000000000, -1.000000000000000000 ) ) ;
#683 = PRODUCT ( 'assembly0p2.STEP', 'assembly0p2.STEP', '', ( #695 ) ) ;
#684 = DIRECTION ( 'NONE',  ( 0.000000000000000000, 0.000000000000000000, 1.000000000000000000 ) ) ;
#685 = DIRECTION ( 'NONE',  ( 0.000000000000000000, 1.000000000000000000, 0.000000000000000000 ) ) ;
#686 = VERTEX_POINT ( 'NONE', #483 ) ;
#687 = FILL_AREA_STYLE ('',( #343 ) ) ;
#688 = ITEM_DEFINED_TRANSFORMATION ( 'NONE', 'NONE', #337,  #547 ) ;
#689 = ADVANCED_FACE ( 'NONE', ( #304, #642 ), #47, .T. ) ;
#690 = VERTEX_POINT ( 'NONE', #556 ) ;
#691 = CARTESIAN_POINT ( 'NONE',  ( 6.081267997836993899, 2.577059871048157813, -9.000000000000005329 ) ) ;
#692 = VECTOR ( 'NONE', #227, 1000.000000000000000 ) ;
#693 = EDGE_LOOP ( 'NONE', ( #111, #1053 ) ) ;
#694 = STYLED_ITEM ( 'NONE', ( #516 ), #484 ) ;
#695 = PRODUCT_CONTEXT ( 'NONE', #93, 'mechanical' ) ;
#696 = AXIS2_PLACEMENT_3D ( 'NONE', #141, #987, #229 ) ;
#697 = EDGE_LOOP ( 'NONE', ( #506, #321, #352, #423 ) ) ;
#698 = ADVANCED_FACE ( 'NONE', ( #895 ), #825, .T. ) ;
#699 = DIRECTION ( 'NONE',  ( 0.000000000000000000, 0.000000000000000000, -1.000000000000000000 ) ) ;
#700 = CIRCLE ( 'NONE', #121, 11.40000000000000036 ) ;
#701 = EDGE_LOOP ( 'NONE', ( #278, #790, #214, #537 ) ) ;
#702 = EDGE_LOOP ( 'NONE', ( #515, #864, #965, #263 ) ) ;
#703 = CARTESIAN_POINT ( 'NONE',  ( -6.113952102105177921, 2.632214575210279683, -9.000000000000000000 ) ) ;
#704 = ADVANCED_FACE ( 'NONE', ( #645 ), #345, .T. ) ;
#705 = LINE ( 'NONE', #22, #806 ) ;
#706 = ORIENTED_EDGE ( 'NONE', *, *, #523, .T. ) ;
#707 = DIRECTION ( 'NONE',  ( 0.000000000000000000, -1.000000000000000000, 0.000000000000000000 ) ) ;
#708 = CYLINDRICAL_SURFACE ( 'NONE', #253, 6.400000000000000355 ) ;
#709 = DIRECTION ( 'NONE',  ( 1.000000000000000000, 0.000000000000000000, 1.224646799147350002E-16 ) ) ;
#710 = ADVANCED_FACE ( 'NONE', ( #777 ), #974, .F. ) ;
#711 = AXIS2_PLACEMENT_3D ( 'NONE', #981, #143, #894 ) ;
#712 = APPLICATION_CONTEXT ( 'automotive_design' ) ;
#713 = APPLICATION_PROTOCOL_DEFINITION ( 'draft international standard', 'automotive_design', 1998, #914 ) ;
#714 = CIRCLE ( 'NONE', #233, 10.73406232339097954 ) ;
#715 = ORIENTED_EDGE ( 'NONE', *, *, #449, .T. ) ;
#716 = CARTESIAN_POINT ( 'NONE',  ( -5.934629126649053177, 2.441515104852861384, -9.000000000000003553 ) ) ;
#717 = CLOSED_SHELL ( 'NONE', ( #875, #728, #1098, #204, #1054, #97, #571, #910, #883, #281, #704, #401, #902, #392, #132, #689, #38, #544, #674, #591, #558, #188, #798, #158, #786, #710 ) ) ;
#718 = CIRCLE ( 'NONE', #569, 0.5000000000000004441 ) ;
#719 = CARTESIAN_POINT ( 'NONE',  ( -6.400000000000000355, -0.6999999999999919620, 0.000000000000000000 ) ) ;
#720 = CARTESIAN_POINT ( 'NONE',  ( -2.000000000000000000, -2.449293598294704935E-16, 0.000000000000000000 ) ) ;
#721 = ORIENTED_EDGE ( 'NONE', *, *, #979, .F. ) ;
#722 = DIRECTION ( 'NONE',  ( 0.000000000000000000, 0.000000000000000000, -1.000000000000000000 ) ) ;
#723 = PRODUCT_DEFINITION_SHAPE ( 'NONE', 'NONE',  #1108 ) ;
#724 =( LENGTH_UNIT ( ) NAMED_UNIT ( * ) SI_UNIT ( .MILLI., .METRE. ) );
#725 = DIRECTION ( 'NONE',  ( 1.000000000000000000, 0.000000000000000000, 0.000000000000000000 ) ) ;
#726 = CARTESIAN_POINT ( 'NONE',  ( 6.148983655857279906, 4.100000000000000533, -9.000000000000000000 ) ) ;
#727 = EDGE_LOOP ( 'NONE', ( #181, #961 ) ) ;
#728 = ADVANCED_FACE ( 'NONE', ( #509 ), #505, .T. ) ;
#729 = CARTESIAN_POINT ( 'NONE',  ( -2.000000000000000000, -2.449293598294704935E-16, 0.000000000000000000 ) ) ;
#730 = LINE ( 'NONE', #649, #413 ) ;
#731 = DIRECTION ( 'NONE',  ( 0.000000000000000000, 1.000000000000000000, 0.000000000000000000 ) ) ;
#732 = DIRECTION ( 'NONE',  ( 0.000000000000000000, 0.000000000000000000, -1.000000000000000000 ) ) ;
#733 = CIRCLE ( 'NONE', #9, 0.5000000000000004441 ) ;
#734 = VECTOR ( 'NONE', #966, 1000.000000000000000 ) ;
#735 = CARTESIAN_POINT ( 'NONE',  ( -6.291378615214650694, 3.600000000000000089, -13.61684820801127849 ) ) ;
#736 = DIRECTION ( 'NONE',  ( -1.185846126156019735E-16, 1.000000000000000000, 0.000000000000000000 ) ) ;
#737 = SPHERICAL_SURFACE ( 'NONE', #486, 50.00000000000000000 ) ;
#738 = DIRECTION ( 'NONE',  ( 0.000000000000000000, 0.000000000000000000, 1.000000000000000000 ) ) ;
#739 = CARTESIAN_POINT ( 'NONE',  ( 8.572527594031369652E-17, -0.6999999999999919620, 0.000000000000000000 ) ) ;
#740 = DIRECTION ( 'NONE',  ( 0.000000000000000000, 1.000000000000000000, 0.000000000000000000 ) ) ;
#741 = CYLINDRICAL_SURFACE ( 'NONE', #550, 11.40000000000000036 ) ;
#742 = DIRECTION ( 'NONE',  ( 1.000000000000000000, 1.224646799147351975E-16, 0.000000000000000000 ) ) ;
#743 = ORIENTED_EDGE ( 'NONE', *, *, #508, .T. ) ;
#744 = CARTESIAN_POINT ( 'NONE',  ( 0.000000000000000000, 48.88870839213300457, 0.000000000000000000 ) ) ;
#745 = LINE ( 'NONE', #388, #284 ) ;
#746 = CIRCLE ( 'NONE', #711, 15.00000000000000000 ) ;
#747 = CARTESIAN_POINT ( 'NONE',  ( 0.000000000000000000, 48.88870839213300457, 0.000000000000000000 ) ) ;
#748 = CIRCLE ( 'NONE', #1075, 10.67161106431360018 ) ;
#749 = CARTESIAN_POINT ( 'NONE',  ( 6.291378615214640924, 3.600000000000000089, -13.61684820801127849 ) ) ;
#750 = VERTEX_POINT ( 'NONE', #424 ) ;
#751 = CARTESIAN_POINT ( 'NONE',  ( 0.000000000000000000, -0.6188667858132650412, 0.000000000000000000 ) ) ;
#752 = VECTOR ( 'NONE', #264, 1000.000000000000000 ) ;
#753 = EDGE_CURVE ( 'NONE', #171, #3, #448, .T. ) ;
#754 = CARTESIAN_POINT ( 'NONE',  ( 0.000000000000000000, 0.000000000000000000, 0.000000000000000000 ) ) ;
#755 = ORIENTED_EDGE ( 'NONE', *, *, #496, .F. ) ;
#756 = DIRECTION ( 'NONE',  ( 0.000000000000000000, 0.000000000000000000, -1.000000000000000000 ) ) ;
#757 =( LENGTH_UNIT ( ) NAMED_UNIT ( * ) SI_UNIT ( .MILLI., .METRE. ) );
#758 = EDGE_CURVE ( 'NONE', #62, #334, #82, .T. ) ;
#759 = CARTESIAN_POINT ( 'NONE',  ( 6.003439897461992913, 2.497776812694923354, -9.000000000000001776 ) ) ;
#760 = VERTEX_POINT ( 'NONE', #605 ) ;
#761 = CARTESIAN_POINT ( 'NONE',  ( 0.000000000000000000, 4.100000000000000533, 15.00000000000000000 ) ) ;
#762 =( NAMED_UNIT ( * ) PLANE_ANGLE_UNIT ( ) SI_UNIT ( $, .RADIAN. ) );
#763 = VERTEX_POINT ( 'NONE', #1007 ) ;
#764 = CARTESIAN_POINT ( 'NONE',  ( 6.038761062366190480, 2.531161811535068473, -8.999999999999998224 ) ) ;
#765 = PRODUCT_DEFINITION_CONTEXT ( 'detailed design', #57, 'design' ) ;
#766 = CIRCLE ( 'NONE', #1041, 10.94322212862718047 ) ;
#767 = ORIENTED_EDGE ( 'NONE', *, *, #455, .F. ) ;
#768 = PRODUCT_RELATED_PRODUCT_CATEGORY ( 'part', '', ( #683 ) ) ;
#769 = DIRECTION ( 'NONE',  ( 0.000000000000000000, 0.000000000000000000, 1.000000000000000000 ) ) ;
#770 = CIRCLE ( 'NONE', #360, 2.000000000000000000 ) ;
#771 = DIRECTION ( 'NONE',  ( 1.000000000000000000, 0.000000000000000000, 0.000000000000000000 ) ) ;
#772 = LINE ( 'NONE', #673, #433 ) ;
#773 = EDGE_LOOP ( 'NONE', ( #595, #1038, #996, #951 ) ) ;
#774 = EDGE_CURVE ( 'NONE', #1089, #472, #802, .T. ) ;
#775 =( NAMED_UNIT ( * ) SI_UNIT ( $, .STERADIAN. ) SOLID_ANGLE_UNIT ( ) );
#776 = ORIENTED_EDGE ( 'NONE', *, *, #758, .F. ) ;
#777 = FACE_OUTER_BOUND ( 'NONE', #815, .T. ) ;
#778 = ORIENTED_EDGE ( 'NONE', *, *, #753, .T. ) ;
#779 = LINE ( 'NONE', #286, #306 ) ;
#780 = EDGE_CURVE ( 'NONE', #459, #373, #772, .T. ) ;
#781 = ORIENTED_EDGE ( 'NONE', *, *, #840, .F. ) ;
#782 = DIRECTION ( 'NONE',  ( 0.000000000000000000, -1.000000000000000000, 0.000000000000000000 ) ) ;
#783 = AXIS2_PLACEMENT_3D ( 'NONE', #75, #684, #771 ) ;
#784 = ORIENTED_EDGE ( 'NONE', *, *, #324, .T. ) ;
#785 = AXIS2_PLACEMENT_3D ( 'NONE', #206, #384, #91 ) ;
#786 = ADVANCED_FACE ( 'NONE', ( #419 ), #341, .T. ) ;
#787 = VECTOR ( 'NONE', #813, 1000.000000000000000 ) ;
#788 = ORIENTED_EDGE ( 'NONE', *, *, #667, .T. ) ;
#789 = CARTESIAN_POINT ( 'NONE',  ( -6.137153652894896894, 2.691036432922323751, -8.999999999999998224 ) ) ;
#790 = ORIENTED_EDGE ( 'NONE', *, *, #297, .T. ) ;
#791 = ORIENTED_EDGE ( 'NONE', *, *, #582, .T. ) ;
#792 = DIRECTION ( 'NONE',  ( -1.000000000000000000, -1.224646799147351975E-16, 0.000000000000000000 ) ) ;
#793 = EDGE_CURVE ( 'NONE', #598, #760, #377, .T. ) ;
#794 = EDGE_LOOP ( 'NONE', ( #89, #357, #935, #362, #788 ) ) ;
#795 = ORIENTED_EDGE ( 'NONE', *, *, #407, .F. ) ;
#796 = DIRECTION ( 'NONE',  ( 0.000000000000000000, 0.000000000000000000, -1.000000000000000000 ) ) ;
#797 = PLANE ( 'NONE',  #606 ) ;
#798 = ADVANCED_FACE ( 'NONE', ( #1090 ), #580, .F. ) ;
#799 = ORIENTED_EDGE ( 'NONE', *, *, #183, .F. ) ;
#800 = CIRCLE ( 'NONE', #464, 6.400000000000000355 ) ;
#801 = AXIS2_PLACEMENT_3D ( 'NONE', #149, #134, #144 ) ;
#802 = CIRCLE ( 'NONE', #992, 2.000000000000000000 ) ;
#803 = EDGE_LOOP ( 'NONE', ( #620, #203, #20 ) ) ;
#804 = AXIS2_PLACEMENT_3D ( 'NONE', #28, #709, #1040 ) ;
#805 = CARTESIAN_POINT ( 'NONE',  ( 6.400000000000000355, -0.5000000000000000000, 7.837739514543070781E-16 ) ) ;
#806 = VECTOR ( 'NONE', #371, 1000.000000000000000 ) ;
#807 = AXIS2_PLACEMENT_3D ( 'NONE', #744, #257, #142 ) ;
#808 = CARTESIAN_POINT ( 'NONE',  ( 0.000000000000000000, 3.600000000000000089, -11.40000000000000036 ) ) ;
#809 = VERTEX_POINT ( 'NONE', #160 ) ;
#810 = EDGE_CURVE ( 'NONE', #109, #147, #601, .T. ) ;
#811 = CARTESIAN_POINT ( 'NONE',  ( 0.000000000000000000, 0.000000000000000000, 0.000000000000000000 ) ) ;
#812 = CARTESIAN_POINT ( 'NONE',  ( 1.396097351027981833E-15, 3.600000000000000089, 11.40000000000000036 ) ) ;
#813 = DIRECTION ( 'NONE',  ( 0.000000000000000000, -1.000000000000000000, 0.000000000000000000 ) ) ;
#814 = EDGE_CURVE ( 'NONE', #373, #408, #904, .T. ) ;
#815 = EDGE_LOOP ( 'NONE', ( #608, #161, #767, #589, #638, #387 ) ) ;
#816 = CARTESIAN_POINT ( 'NONE',  ( 0.000000000000000000, -0.5000000000000000000, -2.000000000000000000 ) ) ;
#817 = DIRECTION ( 'NONE',  ( 0.000000000000000000, 0.000000000000000000, -1.000000000000000000 ) ) ;
#818 = FACE_OUTER_BOUND ( 'NONE', #1000, .T. ) ;
#819 = AXIS2_PLACEMENT_3D ( 'NONE', #275, #881, #792 ) ;
#820 = CARTESIAN_POINT ( 'NONE',  ( 4.336808689942014778E-16, 67.41666666666669983, 0.000000000000000000 ) ) ;
#821 = AXIS2_PLACEMENT_3D ( 'NONE', #665, #240, #1087 ) ;
#822 = DIRECTION ( 'NONE',  ( 0.000000000000000000, 0.000000000000000000, 1.000000000000000000 ) ) ;
#823 = AXIS2_PLACEMENT_3D ( 'NONE', #1059, #391, #307 ) ;
#824 = CARTESIAN_POINT ( 'NONE',  ( 1.340158195218176047E-15, 1.932435664203765002, -10.94322212862718047 ) ) ;
#825 = SPHERICAL_SURFACE ( 'NONE', #215, 68.41666666666669983 ) ;
#826 = FILL_AREA_STYLE ('',( #646 ) ) ;
#827 = CARTESIAN_POINT ( 'NONE',  ( 6.123233995736770966E-17, -0.5000000000000000000, 0.000000000000000000 ) ) ;
#828 = DIRECTION ( 'NONE',  ( 1.000000000000000000, 0.000000000000000000, 0.000000000000000000 ) ) ;
#829 = FACE_OUTER_BOUND ( 'NONE', #178, .T. ) ;
#830 = DIRECTION ( 'NONE',  ( 0.000000000000000000, 1.000000000000000000, 0.000000000000000000 ) ) ;
#831 = EDGE_CURVE ( 'NONE', #1092, #593, #766, .T. ) ;
#832 = VERTEX_POINT ( 'NONE', #1036 ) ;
#833 = LINE ( 'NONE', #568, #177 ) ;
#834 = EDGE_CURVE ( 'NONE', #330, #62, #326, .T. ) ;
#835 = CIRCLE ( 'NONE', #583, 7.000000000000000000 ) ;
#836 = AXIS2_PLACEMENT_3D ( 'NONE', #563, #541, #295 ) ;
#837 = ORIENTED_EDGE ( 'NONE', *, *, #30, .F. ) ;
#838 = DIRECTION ( 'NONE',  ( 0.000000000000000000, -1.000000000000000000, 0.000000000000000000 ) ) ;
#839 = AXIS2_PLACEMENT_3D ( 'NONE', #220, #915, #310 ) ;
#840 = EDGE_CURVE ( 'NONE', #760, #171, #714, .T. ) ;
#841 = DIRECTION ( 'NONE',  ( 0.000000000000000000, -1.000000000000000000, 0.000000000000000000 ) ) ;
#842 = EDGE_LOOP ( 'NONE', ( #1, #44, #476, #12, #632 ) ) ;
#843 = DIRECTION ( 'NONE',  ( 0.000000000000000000, -1.000000000000000000, 0.000000000000000000 ) ) ;
#844 =( LENGTH_UNIT ( ) NAMED_UNIT ( * ) SI_UNIT ( .MILLI., .METRE. ) );
#845 = CARTESIAN_POINT ( 'NONE',  ( 5.891492779862232965, 2.420405719339826955, -9.000000000000000000 ) ) ;
#846 = VERTEX_POINT ( 'NONE', #1049 ) ;
#847 = CARTESIAN_POINT ( 'NONE',  ( 0.000000000000000000, -0.6999999999999919620, -6.400000000000000355 ) ) ;
#848 =( NAMED_UNIT ( * ) SI_UNIT ( $, .STERADIAN. ) SOLID_ANGLE_UNIT ( ) );
#849 = PRODUCT ( 'assembly0p2', 'assembly0p2', '', ( #98 ) ) ;
#850 = AXIS2_PLACEMENT_3D ( 'NONE', #209, #303, #393 ) ;
#851 = DIRECTION ( 'NONE',  ( 0.000000000000000000, 0.000000000000000000, 1.000000000000000000 ) ) ;
#852 = AXIS2_PLACEMENT_3D ( 'NONE', #51, #404, #46 ) ;
#853 = AXIS2_PLACEMENT_3D ( 'NONE', #154, #254, #588 ) ;
#854 = ORIENTED_EDGE ( 'NONE', *, *, #607, .F. ) ;
#855 = AXIS2_PLACEMENT_3D ( 'NONE', #305, #577, #980 ) ;
#856 = EDGE_LOOP ( 'NONE', ( #447, #629 ) ) ;
#857 = CARTESIAN_POINT ( 'NONE',  ( 0.000000000000000000, -0.5000000000000000000, 0.000000000000000000 ) ) ;
#858 = VERTEX_POINT ( 'NONE', #187 ) ;
#859 = SURFACE_STYLE_USAGE ( .BOTH. , #260 ) ;
#860 = SHAPE_DEFINITION_REPRESENTATION ( #18, #611 ) ;
#861 = ORIENTED_EDGE ( 'NONE', *, *, #814, .F. ) ;
#862 = CARTESIAN_POINT ( 'NONE',  ( 0.000000000000000000, -0.5000000000000000000, 0.000000000000000000 ) ) ;
#863 = EDGE_CURVE ( 'NONE', #542, #465, #518, .T. ) ;
#864 = ORIENTED_EDGE ( 'NONE', *, *, #780, .T. ) ;
#865 = ORIENTED_EDGE ( 'NONE', *, *, #474, .F. ) ;
#866 = DIRECTION ( 'NONE',  ( 0.000000000000000000, 1.000000000000000000, 0.000000000000000000 ) ) ;
#867 =( GEOMETRIC_REPRESENTATION_CONTEXT ( 3 ) GLOBAL_UNCERTAINTY_ASSIGNED_CONTEXT ( ( #1024 ) ) GLOBAL_UNIT_ASSIGNED_CONTEXT ( ( #757, #110, #618 ) ) REPRESENTATION_CONTEXT ( 'NONE', 'WORKASPACE' ) );
#868 = ORIENTED_EDGE ( 'NONE', *, *, #863, .F. ) ;
#869 = CIRCLE ( 'NONE', #785, 7.000000000000000000 ) ;
#870 = EDGE_CURVE ( 'NONE', #536, #930, #173, .T. ) ;
#871 = VERTEX_POINT ( 'NONE', #963 ) ;
#872 = CARTESIAN_POINT ( 'NONE',  ( 0.000000000000000000, -0.5000000000000000000, -6.400000000000000355 ) ) ;
#873 = CARTESIAN_POINT ( 'NONE',  ( 0.000000000000000000, 3.600000000000000089, 0.000000000000000000 ) ) ;
#874 = EDGE_LOOP ( 'NONE', ( #283, #957 ) ) ;
#875 = ADVANCED_FACE ( 'NONE', ( #375 ), #230, .F. ) ;
#876 = DIRECTION ( 'NONE',  ( 0.000000000000000000, -1.000000000000000000, 0.000000000000000000 ) ) ;
#877 = DIRECTION ( 'NONE',  ( 0.000000000000000000, -1.000000000000000000, 0.000000000000000000 ) ) ;
#878 = ORIENTED_EDGE ( 'NONE', *, *, #942, .F. ) ;
#879 = CONTEXT_DEPENDENT_SHAPE_REPRESENTATION ( #293, #627 ) ;
#880 = ORIENTED_EDGE ( 'NONE', *, *, #332, .T. ) ;
#881 = DIRECTION ( 'NONE',  ( -1.224646799147351975E-16, 1.000000000000000000, 0.000000000000000000 ) ) ;
#882 = DIRECTION ( 'NONE',  ( 1.000000000000000000, 0.000000000000000000, -1.224646799147351975E-16 ) ) ;
#883 = ADVANCED_FACE ( 'NONE', ( #543, #446 ), #116, .F. ) ;
#884 = EDGE_LOOP ( 'NONE', ( #669, #349 ) ) ;
#885 = CIRCLE ( 'NONE', #819, 2.000000000000000000 ) ;
#886 = VECTOR ( 'NONE', #228, 1000.000000000000000 ) ;
#887 = ORIENTED_EDGE ( 'NONE', *, *, #276, .T. ) ;
#888 = CARTESIAN_POINT ( 'NONE',  ( -5.849794352149629617, 2.399999999999999911, -9.000000000000000000 ) ) ;
#889 = TOROIDAL_SURFACE ( 'NONE', #696, 10.40000000000000036, 1.000000000000000000 ) ;
#890 = CIRCLE ( 'NONE', #271, 6.400000000000000355 ) ;
#891 = DIRECTION ( 'NONE',  ( 0.000000000000000000, -1.000000000000000000, 0.000000000000000000 ) ) ;
#892 = ORIENTED_EDGE ( 'NONE', *, *, #998, .T. ) ;
#893 = ORIENTED_EDGE ( 'NONE', *, *, #76, .T. ) ;
#894 = DIRECTION ( 'NONE',  ( 0.000000000000000000, 0.000000000000000000, 1.000000000000000000 ) ) ;
#895 = FACE_OUTER_BOUND ( 'NONE', #884, .T. ) ;
#896 = DIRECTION ( 'NONE',  ( -1.000000000000000000, -1.185846126156020475E-16, 0.000000000000000000 ) ) ;
#897 = EDGE_CURVE ( 'NONE', #1035, #189, #80, .T. ) ;
#898 = FACE_OUTER_BOUND ( 'NONE', #420, .T. ) ;
#899 = CARTESIAN_POINT ( 'NONE',  ( 0.000000000000000000, 2.464992601399714989, 0.000000000000000000 ) ) ;
#900 = PLANE ( 'NONE',  #1079 ) ;
#901 = DIRECTION ( 'NONE',  ( 0.000000000000000000, 0.000000000000000000, -1.000000000000000000 ) ) ;
#902 = ADVANCED_FACE ( 'NONE', ( #946 ), #621, .T. ) ;
#903 = CARTESIAN_POINT ( 'NONE',  ( -6.148983655857279906, 4.100000000000000533, -9.000000000000000000 ) ) ;
#904 = CIRCLE ( 'NONE', #287, 15.00000000000000000 ) ;
#905 = CARTESIAN_POINT ( 'NONE',  ( 0.000000000000000000, 0.000000000000000000, 0.000000000000000000 ) ) ;
#906 = VECTOR ( 'NONE', #540, 1000.000000000000000 ) ;
#907 = SURFACE_SIDE_STYLE ('',( #485 ) ) ;
#908 = CARTESIAN_POINT ( 'NONE',  ( 0.000000000000000000, -0.6999999999999919620, 0.000000000000000000 ) ) ;
#909 = DIRECTION ( 'NONE',  ( 0.000000000000000000, -1.000000000000000000, 0.000000000000000000 ) ) ;
#910 = ADVANCED_FACE ( 'NONE', ( #35 ), #531, .F. ) ;
#911 = CARTESIAN_POINT ( 'NONE',  ( 0.000000000000000000, 0.000000000000000000, -11.40000000000000036 ) ) ;
#912 = ORIENTED_EDGE ( 'NONE', *, *, #1064, .T. ) ;
#913 = FACE_OUTER_BOUND ( 'NONE', #296, .T. ) ;
#914 = APPLICATION_CONTEXT ( 'automotive_design' ) ;
#915 = DIRECTION ( 'NONE',  ( 0.000000000000000000, 0.000000000000000000, -1.000000000000000000 ) ) ;
#916 = EDGE_CURVE ( 'NONE', #334, #62, #885, .T. ) ;
#917 = ORIENTED_EDGE ( 'NONE', *, *, #90, .F. ) ;
#918 = CARTESIAN_POINT ( 'NONE',  ( 0.000000000000000000, 48.88870839213300457, 0.000000000000000000 ) ) ;
#919 = AXIS2_PLACEMENT_3D ( 'NONE', #970, #891, #126 ) ;
#920 = ADVANCED_BREP_SHAPE_REPRESENTATION ( '', ( #102, #547 ), #1022 ) ;
#921 = AXIS2_PLACEMENT_3D ( 'NONE', #498, #331, #162 ) ;
#922 = EDGE_CURVE ( 'NONE', #690, #598, #244, .T. ) ;
#923 = ORIENTED_EDGE ( 'NONE', *, *, #365, .T. ) ;
#924 = LINE ( 'NONE', #74, #659 ) ;
#925 = DIRECTION ( 'NONE',  ( 0.000000000000000000, 1.000000000000000000, 0.000000000000000000 ) ) ;
#926 = ORIENTED_EDGE ( 'NONE', *, *, #958, .F. ) ;
#927 = FACE_OUTER_BOUND ( 'NONE', #379, .T. ) ;
#928 = DIRECTION ( 'NONE',  ( 0.000000000000000000, 0.000000000000000000, -1.000000000000000000 ) ) ;
#929 = ORIENTED_EDGE ( 'NONE', *, *, #774, .F. ) ;
#930 = VERTEX_POINT ( 'NONE', #872 ) ;
#931 = CIRCLE ( 'NONE', #210, 10.90000000000000036 ) ;
#932 = DIRECTION ( 'NONE',  ( 2.028422091276168244E-16, -1.000000000000000000, 0.000000000000000000 ) ) ;
#933 = UNCERTAINTY_MEASURE_WITH_UNIT (LENGTH_MEASURE( 1.000000000000000082E-05 ), #587, 'distance_accuracy_value', 'NONE');
#934 =( GEOMETRIC_REPRESENTATION_CONTEXT ( 3 ) GLOBAL_UNCERTAINTY_ASSIGNED_CONTEXT ( ( #145 ) ) GLOBAL_UNIT_ASSIGNED_CONTEXT ( ( #724, #353, #1019 ) ) REPRESENTATION_CONTEXT ( 'NONE', 'WORKASPACE' ) );
#935 = ORIENTED_EDGE ( 'NONE', *, *, #13, .T. ) ;
#936 = LINE ( 'NONE', #1050, #1060 ) ;
#937 = VECTOR ( 'NONE', #725, 1000.000000000000000 ) ;
#938 = AXIS2_PLACEMENT_3D ( 'NONE', #386, #32, #901 ) ;
#939 = APPLICATION_PROTOCOL_DEFINITION ( 'draft international standard', 'automotive_design', 1998, #93 ) ;
#940 = VERTEX_POINT ( 'NONE', #805 ) ;
#941 = DIRECTION ( 'NONE',  ( 0.000000000000000000, 1.000000000000000000, 0.000000000000000000 ) ) ;
#942 = EDGE_CURVE ( 'NONE', #99, #846, #108, .T. ) ;
#943 = ORIENTED_EDGE ( 'NONE', *, *, #442, .F. ) ;
#944 = ITEM_DEFINED_TRANSFORMATION ( 'NONE', 'NONE', #136,  #547 ) ;
#945 = ORIENTED_EDGE ( 'NONE', *, *, #490, .T. ) ;
#946 = FACE_OUTER_BOUND ( 'NONE', #609, .T. ) ;
#947 = UNCERTAINTY_MEASURE_WITH_UNIT (LENGTH_MEASURE( 1.000000000000000082E-05 ), #163, 'distance_accuracy_value', 'NONE');
#948 = LINE ( 'NONE', #200, #906 ) ;
#949 = EDGE_CURVE ( 'NONE', #763, #1100, #394, .T. ) ;
#950 = CONTEXT_DEPENDENT_SHAPE_REPRESENTATION ( #1104, #457 ) ;
#951 = ORIENTED_EDGE ( 'NONE', *, *, #324, .F. ) ;
#952 = DIRECTION ( 'NONE',  ( 0.000000000000000000, 0.000000000000000000, -1.000000000000000000 ) ) ;
#953 = AXIS2_PLACEMENT_3D ( 'NONE', #899, #640, #985 ) ;
#954 = VERTEX_POINT ( 'NONE', #1044 ) ;
#955 = EDGE_CURVE ( 'NONE', #858, #373, #746, .T. ) ;
#956 = CIRCLE ( 'NONE', #236, 2.000000000000000000 ) ;
#957 = ORIENTED_EDGE ( 'NONE', *, *, #916, .T. ) ;
#958 = EDGE_CURVE ( 'NONE', #967, #846, #533, .T. ) ;
#959 = CARTESIAN_POINT ( 'NONE',  ( 0.000000000000000000, 0.000000000000000000, 0.000000000000000000 ) ) ;
#960 = CARTESIAN_POINT ( 'NONE',  ( 0.000000000000000000, 0.000000000000000000, 0.000000000000000000 ) ) ;
#961 = ORIENTED_EDGE ( 'NONE', *, *, #870, .T. ) ;
#962 = ORIENTED_EDGE ( 'NONE', *, *, #942, .T. ) ;
#963 = CARTESIAN_POINT ( 'NONE',  ( 7.000000000000000000, -0.6188667858132650412, -8.572527594031489953E-16 ) ) ;
#964 = CARTESIAN_POINT ( 'NONE',  ( 1.273632671113246093E-15, 2.772024682098680248, 10.40000000000000036 ) ) ;
#965 = ORIENTED_EDGE ( 'NONE', *, *, #955, .F. ) ;
#966 = DIRECTION ( 'NONE',  ( 0.000000000000000000, 1.000000000000000000, 0.000000000000000000 ) ) ;
#967 = VERTEX_POINT ( 'NONE', #410 ) ;
#968 = DIRECTION ( 'NONE',  ( -1.224646799147351975E-16, 1.000000000000000000, 0.000000000000000000 ) ) ;
#969 = APPLICATION_CONTEXT ( 'automotive_design' ) ;
#970 = CARTESIAN_POINT ( 'NONE',  ( 0.000000000000000000, 2.772024682098680248, 0.000000000000000000 ) ) ;
#971 = CARTESIAN_POINT ( 'NONE',  ( 6.148983655857279906, 2.772024682098680248, -9.000000000000000000 ) ) ;
#972 =( GEOMETRIC_REPRESENTATION_CONTEXT ( 3 ) GLOBAL_UNCERTAINTY_ASSIGNED_CONTEXT ( ( #933 ) ) GLOBAL_UNIT_ASSIGNED_CONTEXT ( ( #587, #762, #848 ) ) REPRESENTATION_CONTEXT ( 'NONE', 'WORKASPACE' ) );
#973 = PRODUCT_RELATED_PRODUCT_CATEGORY ( 'part', '', ( #513 ) ) ;
#974 = TOROIDAL_SURFACE ( 'NONE', #501, 10.40000000000000036, 0.5000000000000000000 ) ;
#975 = ORIENTED_EDGE ( 'NONE', *, *, #235, .T. ) ;
#976 = CARTESIAN_POINT ( 'NONE',  ( -6.400000000000000355, -0.6999999999999919620, 0.000000000000000000 ) ) ;
#977 = CONICAL_SURFACE ( 'NONE', #289, 7.036069511671510845, 0.9965262158183716412 ) ;
#978 = FACE_OUTER_BOUND ( 'NONE', #664, .T. ) ;
#979 = EDGE_CURVE ( 'NONE', #363, #809, #374, .T. ) ;
#980 = DIRECTION ( 'NONE',  ( 0.000000000000000000, 0.000000000000000000, 1.000000000000000000 ) ) ;
#981 = CARTESIAN_POINT ( 'NONE',  ( 0.000000000000000000, 4.100000000000000533, 0.000000000000000000 ) ) ;
#982 = CARTESIAN_POINT ( 'NONE',  ( -6.400000000000000355, -0.5000000000000000000, 0.000000000000000000 ) ) ;
#983 = DIRECTION ( 'NONE',  ( 0.000000000000000000, 0.000000000000000000, 1.000000000000000000 ) ) ;
#984 = EDGE_CURVE ( 'NONE', #686, #871, #1095, .T. ) ;
#985 = DIRECTION ( 'NONE',  ( 0.000000000000000000, 0.000000000000000000, 1.000000000000000000 ) ) ;
#986 = DIRECTION ( 'NONE',  ( 0.000000000000000000, -1.000000000000000000, 0.000000000000000000 ) ) ;
#987 = DIRECTION ( 'NONE',  ( 0.000000000000000000, 1.000000000000000000, 0.000000000000000000 ) ) ;
#988 = AXIS2_PLACEMENT_3D ( 'NONE', #959, #1031, #182 ) ;
#989 = CARTESIAN_POINT ( 'NONE',  ( 2.000000000000000000, 2.449293598294704935E-16, 2.449293598294704935E-16 ) ) ;
#990 = CONICAL_SURFACE ( 'NONE', #340, 11.40000000000000036, 0.9965262158183716412 ) ;
#991 = CARTESIAN_POINT ( 'NONE',  ( 0.000000000000000000, 2.227975317901319752, 11.40000000000000036 ) ) ;
#992 = AXIS2_PLACEMENT_3D ( 'NONE', #857, #499, #435 ) ;
#993 = FACE_OUTER_BOUND ( 'NONE', #151, .T. ) ;
#994 = AXIS2_PLACEMENT_3D ( 'NONE', #751, #838, #1073 ) ;
#995 = CARTESIAN_POINT ( 'NONE',  ( 0.000000000000000000, 3.600000000000000089, 0.000000000000000000 ) ) ;
#996 = ORIENTED_EDGE ( 'NONE', *, *, #1020, .T. ) ;
#997 = DIRECTION ( 'NONE',  ( -1.224646799147351975E-16, 1.000000000000000000, 0.000000000000000000 ) ) ;
#998 = EDGE_CURVE ( 'NONE', #832, #593, #549, .T. ) ;
#999 = DIRECTION ( 'NONE',  ( 0.000000000000000000, 1.000000000000000000, 0.000000000000000000 ) ) ;
#1000 = EDGE_LOOP ( 'NONE', ( #837, #1021, #6, #926 ) ) ;
#1001 = FACE_OUTER_BOUND ( 'NONE', #78, .T. ) ;
#1002 = DIRECTION ( 'NONE',  ( 0.000000000000000000, 0.000000000000000000, -1.000000000000000000 ) ) ;
#1003 = VERTEX_POINT ( 'NONE', #976 ) ;
#1004 = DIRECTION ( 'NONE',  ( 0.000000000000000000, 0.000000000000000000, 1.000000000000000000 ) ) ;
#1005 = CARTESIAN_POINT ( 'NONE',  ( 0.000000000000000000, 0.000000000000000000, 0.000000000000000000 ) ) ;
#1006 = AXIS2_PLACEMENT_3D ( 'NONE', #1005, #354, #92 ) ;
#1007 = CARTESIAN_POINT ( 'NONE',  ( 2.449293598294704935E-16, 0.000000000000000000, 2.000000000000000000 ) ) ;
#1008 = AXIS2_PLACEMENT_3D ( 'NONE', #503, #1093, #431 ) ;
#1009 = EDGE_CURVE ( 'NONE', #147, #459, #514, .T. ) ;
#1010 = AXIS2_PLACEMENT_3D ( 'NONE', #559, #403, #137 ) ;
#1011 = ORIENTED_EDGE ( 'NONE', *, *, #814, .T. ) ;
#1012 = CARTESIAN_POINT ( 'NONE',  ( 0.000000000000000000, 0.000000000000000000, 0.000000000000000000 ) ) ;
#1013 = DIRECTION ( 'NONE',  ( 0.000000000000000000, 0.000000000000000000, 1.000000000000000000 ) ) ;
#1014 = EDGE_LOOP ( 'NONE', ( #113, #534, #245, #778, #657, #458 ) ) ;
#1015 = CARTESIAN_POINT ( 'NONE',  ( 0.000000000000000000, 0.000000000000000000, 0.000000000000000000 ) ) ;
#1016 = DIRECTION ( 'NONE',  ( 0.000000000000000000, 0.000000000000000000, 1.000000000000000000 ) ) ;
#1017 = CARTESIAN_POINT ( 'NONE',  ( 6.044478346530926416, 2.536997090267066657, -9.000000000000000000 ) ) ;
#1018 = ORIENTED_EDGE ( 'NONE', *, *, #355, .F. ) ;
#1019 =( NAMED_UNIT ( * ) SI_UNIT ( $, .STERADIAN. ) SOLID_ANGLE_UNIT ( ) );
#1020 = EDGE_CURVE ( 'NONE', #472, #1089, #652, .T. ) ;
#1021 = ORIENTED_EDGE ( 'NONE', *, *, #633, .F. ) ;
#1022 =( GEOMETRIC_REPRESENTATION_CONTEXT ( 3 ) GLOBAL_UNCERTAINTY_ASSIGNED_CONTEXT ( ( #947 ) ) GLOBAL_UNIT_ASSIGNED_CONTEXT ( ( #163, #579, #775 ) ) REPRESENTATION_CONTEXT ( 'NONE', 'WORKASPACE' ) );
#1023 = DIRECTION ( 'NONE',  ( -1.000000000000000000, -1.224646799147351975E-16, 0.000000000000000000 ) ) ;
#1024 = UNCERTAINTY_MEASURE_WITH_UNIT (LENGTH_MEASURE( 1.000000000000000082E-05 ), #757, 'distance_accuracy_value', 'NONE');
#1025 = CONICAL_SURFACE ( 'NONE', #217, 11.40000000000000036, 0.9965262158183716412 ) ;
#1026 = ORIENTED_EDGE ( 'NONE', *, *, #660, .T. ) ;
#1027 = AXIS2_PLACEMENT_3D ( 'NONE', #61, #314, #896 ) ;
#1028 = CIRCLE ( 'NONE', #839, 68.41666666666669983 ) ;
#1029 = SHAPE_DEFINITION_REPRESENTATION ( #117, #231 ) ;
#1030 = ORIENTED_EDGE ( 'NONE', *, *, #128, .T. ) ;
#1031 = DIRECTION ( 'NONE',  ( 0.000000000000000000, -1.000000000000000000, 0.000000000000000000 ) ) ;
#1032 = EDGE_CURVE ( 'NONE', #450, #750, #223, .T. ) ;
#1033 = DIRECTION ( 'NONE',  ( 0.000000000000000000, 0.000000000000000000, -1.000000000000000000 ) ) ;
#1034 = PRODUCT_DEFINITION_SHAPE ( 'NONE', 'NONE',  #16 ) ;
#1035 = VERTEX_POINT ( 'NONE', #903 ) ;
#1036 = CARTESIAN_POINT ( 'NONE',  ( 0.000000000000000000, -0.6188667858132650412, 7.000000000000000000 ) ) ;
#1037 = PLANE ( 'NONE',  #68 ) ;
#1038 = ORIENTED_EDGE ( 'NONE', *, *, #355, .T. ) ;
#1039 = DIRECTION ( 'NONE',  ( 0.000000000000000000, -1.000000000000000000, 0.000000000000000000 ) ) ;
#1040 = DIRECTION ( 'NONE',  ( 1.224646799147349509E-16, 0.000000000000000000, -1.000000000000000000 ) ) ;
#1041 = AXIS2_PLACEMENT_3D ( 'NONE', #81, #1103, #722 ) ;
#1042 = CIRCLE ( 'NONE', #1027, 6.400000000000000355 ) ;
#1043 = ORIENTED_EDGE ( 'NONE', *, *, #416, .T. ) ;
#1044 = CARTESIAN_POINT ( 'NONE',  ( 0.000000000000000000, 2.352230173151220072, 10.67161106431360018 ) ) ;
#1045 = CARTESIAN_POINT ( 'NONE',  ( 1.334865011070614062E-15, 2.772024682098680248, 10.90000000000000036 ) ) ;
#1046 = CARTESIAN_POINT ( 'NONE',  ( 0.000000000000000000, 0.000000000000000000, 7.036069511671510845 ) ) ;
#1047 = CYLINDRICAL_SURFACE ( 'NONE', #836, 2.000000000000000000 ) ;
#1048 = ORIENTED_EDGE ( 'NONE', *, *, #582, .F. ) ;
#1049 = CARTESIAN_POINT ( 'NONE',  ( 1.396097351027981833E-15, 2.772024682098680248, 11.40000000000000036 ) ) ;
#1050 = CARTESIAN_POINT ( 'NONE',  ( 1.396097351027981833E-15, 2.227975317901319752, -11.40000000000000036 ) ) ;
#1051 = ORIENTED_EDGE ( 'NONE', *, *, #332, .F. ) ;
#1052 = FACE_OUTER_BOUND ( 'NONE', #701, .T. ) ;
#1053 = ORIENTED_EDGE ( 'NONE', *, *, #45, .T. ) ;
#1054 = ADVANCED_FACE ( 'NONE', ( #125 ), #560, .T. ) ;
#1055 = DIRECTION ( 'NONE',  ( 0.000000000000000000, 0.000000000000000000, 1.000000000000000000 ) ) ;
#1056 = LINE ( 'NONE', #911, #123 ) ;
#1057 = DIRECTION ( 'NONE',  ( 0.000000000000000000, 0.000000000000000000, 1.000000000000000000 ) ) ;
#1058 =( GEOMETRIC_REPRESENTATION_CONTEXT ( 3 ) GLOBAL_UNCERTAINTY_ASSIGNED_CONTEXT ( ( #524 ) ) GLOBAL_UNIT_ASSIGNED_CONTEXT ( ( #844, #427, #671 ) ) REPRESENTATION_CONTEXT ( 'NONE', 'WORKASPACE' ) );
#1059 = CARTESIAN_POINT ( 'NONE',  ( 0.000000000000000000, 0.000000000000000000, 0.000000000000000000 ) ) ;
#1060 = VECTOR ( 'NONE', #539, 1000.000000000000000 ) ;
#1061 = DIRECTION ( 'NONE',  ( 0.000000000000000000, 0.5432221286271869953, 0.8395890178949150240 ) ) ;
#1062 = CIRCLE ( 'NONE', #586, 1.000000000000000888 ) ;
#1063 = CARTESIAN_POINT ( 'NONE',  ( -7.000000000000000000, -0.6188667858132650412, 0.000000000000000000 ) ) ;
#1064 = EDGE_CURVE ( 'NONE', #616, #940, #168, .T. ) ;
#1065 = DIRECTION ( 'NONE',  ( -1.000000000000000000, 0.000000000000000000, 0.000000000000000000 ) ) ;
#1066 = DIRECTION ( 'NONE',  ( -1.000000000000000000, -1.185846126156020475E-16, 0.000000000000000000 ) ) ;
#1067 = DIRECTION ( 'NONE',  ( 0.000000000000000000, -1.000000000000000000, 0.000000000000000000 ) ) ;
#1068 = FACE_OUTER_BOUND ( 'NONE', #437, .T. ) ;
#1069 = EDGE_CURVE ( 'NONE', #3, #443, #931, .T. ) ;
#1070 = CARTESIAN_POINT ( 'NONE',  ( 0.000000000000000000, 3.600000000000000089, 0.000000000000000000 ) ) ;
#1071 = DIRECTION ( 'NONE',  ( 0.000000000000000000, 1.000000000000000000, 0.000000000000000000 ) ) ;
#1072 = CARTESIAN_POINT ( 'NONE',  ( 0.000000000000000000, 2.772024682098680248, 0.000000000000000000 ) ) ;
#1073 = DIRECTION ( 'NONE',  ( 0.000000000000000000, 0.000000000000000000, -1.000000000000000000 ) ) ;
#1074 = EDGE_CURVE ( 'NONE', #930, #536, #800, .T. ) ;
#1075 = AXIS2_PLACEMENT_3D ( 'NONE', #635, #1101, #119 ) ;
#1076 = CARTESIAN_POINT ( 'NONE',  ( 0.000000000000000000, 0.000000000000000000, -2.000000000000000000 ) ) ;
#1077 = DIRECTION ( 'NONE',  ( 0.000000000000000000, 0.000000000000000000, 1.000000000000000000 ) ) ;
#1078 = TOROIDAL_SURFACE ( 'NONE', #603, 10.40000000000000036, 1.000000000000000000 ) ;
#1079 = AXIS2_PLACEMENT_3D ( 'NONE', #400, #1067, #328 ) ;
#1080 = PLANE ( 'NONE',  #105 ) ;
#1081 = ORIENTED_EDGE ( 'NONE', *, *, #496, .T. ) ;
#1082 = DIRECTION ( 'NONE',  ( 0.000000000000000000, -1.000000000000000000, 0.000000000000000000 ) ) ;
#1083 = SHAPE_REPRESENTATION_RELATIONSHIP ( 'NONE' , 'NONE' ,  #647, #920 ) ;
#1084 = EDGE_CURVE ( 'NONE', #109, #408, #745, .T. ) ;
#1085 = CARTESIAN_POINT ( 'NONE',  ( 0.000000000000000000, 2.464992601399714989, 0.000000000000000000 ) ) ;
#1086 = ORIENTED_EDGE ( 'NONE', *, *, #863, .T. ) ;
#1087 = DIRECTION ( 'NONE',  ( 0.000000000000000000, 0.000000000000000000, -1.000000000000000000 ) ) ;
#1088 = ADVANCED_FACE ( 'NONE', ( #481 ), #133, .T. ) ;
#1089 = VERTEX_POINT ( 'NONE', #816 ) ;
#1090 = FACE_OUTER_BOUND ( 'NONE', #773, .T. ) ;
#1091 = PRODUCT_DEFINITION_CONTEXT ( 'detailed design', #631, 'design' ) ;
#1092 = VERTEX_POINT ( 'NONE', #824 ) ;
#1093 = DIRECTION ( 'NONE',  ( 0.000000000000000000, -1.000000000000000000, 0.000000000000000000 ) ) ;
#1094 = CARTESIAN_POINT ( 'NONE',  ( 0.000000000000000000, 0.000000000000000000, 0.000000000000000000 ) ) ;
#1095 = CIRCLE ( 'NONE', #372, 7.000000000000000000 ) ;
#1096 = CARTESIAN_POINT ( 'NONE',  ( 0.000000000000000000, 3.600000000000000089, 71.15000000000000568 ) ) ;
#1097 = CONICAL_SURFACE ( 'NONE', #553, 7.036069511671510845, 0.9965262158183716412 ) ;
#1098 = ADVANCED_FACE ( 'NONE', ( #651 ), #493, .T. ) ;
#1099 = CIRCLE ( 'NONE', #622, 6.400000000000000355 ) ;
#1100 = VERTEX_POINT ( 'NONE', #1076 ) ;
#1101 = DIRECTION ( 'NONE',  ( 0.000000000000000000, 1.000000000000000000, 0.000000000000000000 ) ) ;
#1102 = DIRECTION ( 'NONE',  ( 1.000000000000000000, 0.000000000000000000, 0.000000000000000000 ) ) ;
#1103 = DIRECTION ( 'NONE',  ( 0.000000000000000000, -1.000000000000000000, 0.000000000000000000 ) ) ;
#1104 =( REPRESENTATION_RELATIONSHIP ('NONE','NONE', #225, #611 ) REPRESENTATION_RELATIONSHIP_WITH_TRANSFORMATION ( #348 )SHAPE_REPRESENTATION_RELATIONSHIP( ) );
#1105 = CARTESIAN_POINT ( 'NONE',  ( 0.000000000000000000, 0.000000000000000000, 0.000000000000000000 ) ) ;
#1106 = NEXT_ASSEMBLY_USAGE_OCCURRENCE ( 'NAUO1', ' ', ' ', #662, #290, $ ) ;
#1107 = NEXT_ASSEMBLY_USAGE_OCCURRENCE ( 'NAUO2', ' ', ' ', #290, #16, $ ) ;
#1108 = NEXT_ASSEMBLY_USAGE_OCCURRENCE ( 'NAUO3', ' ', ' ', #290, #100, $ ) ;
ENDSEC;
END-ISO-10303-21;
